%TF.GenerationSoftware,KiCad,Pcbnew,9.0.7*%
%TF.CreationDate,2026-03-18T14:58:24+05:30*%
%TF.ProjectId,LDR,4c44522e-6b69-4636-9164-5f7063625858,rev?*%
%TF.SameCoordinates,Original*%
%TF.FileFunction,Drillmap*%
%TF.FilePolarity,Positive*%
%FSLAX45Y45*%
G04 Gerber Fmt 4.5, Leading zero omitted, Abs format (unit mm)*
G04 Created by KiCad (PCBNEW 9.0.7) date 2026-03-18 14:58:24*
%MOMM*%
%LPD*%
G01*
G04 APERTURE LIST*
%ADD10C,0.050000*%
%ADD11C,0.200000*%
%ADD12C,0.100000*%
%ADD13C,0.119000*%
%ADD14C,0.120000*%
%ADD15C,0.130000*%
G04 APERTURE END LIST*
D10*
X3050000Y-8600000D02*
G75*
G02*
X2650000Y-8600000I-200000J0D01*
G01*
X2650000Y-8600000D02*
G75*
G02*
X3050000Y-8600000I200000J0D01*
G01*
X10450000Y-3650000D02*
G75*
G02*
X10050000Y-3650000I-200000J0D01*
G01*
X10050000Y-3650000D02*
G75*
G02*
X10450000Y-3650000I200000J0D01*
G01*
X2500000Y-3250000D02*
X10750000Y-3250000D01*
X10750000Y-9000000D01*
X2500000Y-9000000D01*
X2500000Y-3250000D01*
X10450000Y-8600000D02*
G75*
G02*
X10050000Y-8600000I-200000J0D01*
G01*
X10050000Y-8600000D02*
G75*
G02*
X10450000Y-8600000I200000J0D01*
G01*
X3050000Y-3650000D02*
G75*
G02*
X2650000Y-3650000I-200000J0D01*
G01*
X2650000Y-3650000D02*
G75*
G02*
X3050000Y-3650000I200000J0D01*
G01*
D11*
D12*
X5262500Y-7058500D02*
X5337500Y-7133500D01*
X5337500Y-7058500D02*
X5262500Y-7133500D01*
X5262500Y-7185500D02*
X5337500Y-7260500D01*
X5337500Y-7185500D02*
X5262500Y-7260500D01*
X5262500Y-7312500D02*
X5337500Y-7387500D01*
X5337500Y-7312500D02*
X5262500Y-7387500D01*
X3882000Y-4650000D02*
G75*
G02*
X3802000Y-4650000I-40000J0D01*
G01*
X3802000Y-4650000D02*
G75*
G02*
X3882000Y-4650000I40000J0D01*
G01*
X3882000Y-5700000D02*
G75*
G02*
X3802000Y-5700000I-40000J0D01*
G01*
X3802000Y-5700000D02*
G75*
G02*
X3882000Y-5700000I40000J0D01*
G01*
X4240000Y-7880000D02*
G75*
G02*
X4160000Y-7880000I-40000J0D01*
G01*
X4160000Y-7880000D02*
G75*
G02*
X4240000Y-7880000I40000J0D01*
G01*
X4240000Y-8220000D02*
G75*
G02*
X4160000Y-8220000I-40000J0D01*
G01*
X4160000Y-8220000D02*
G75*
G02*
X4240000Y-8220000I40000J0D01*
G01*
X4898000Y-4650000D02*
G75*
G02*
X4818000Y-4650000I-40000J0D01*
G01*
X4818000Y-4650000D02*
G75*
G02*
X4898000Y-4650000I40000J0D01*
G01*
X4898000Y-5700000D02*
G75*
G02*
X4818000Y-5700000I-40000J0D01*
G01*
X4818000Y-5700000D02*
G75*
G02*
X4898000Y-5700000I40000J0D01*
G01*
X6219500Y-5505000D02*
X6219500Y-5595000D01*
X6174500Y-5550000D02*
X6264500Y-5550000D01*
X6473500Y-5505000D02*
X6473500Y-5595000D01*
X6428500Y-5550000D02*
X6518500Y-5550000D01*
X7135356Y-7085356D02*
X7135356Y-7014644D01*
X7064644Y-7014644D01*
X7064644Y-7085356D01*
X7135356Y-7085356D01*
X7135356Y-8285356D02*
X7135356Y-8214644D01*
X7064644Y-8214644D01*
X7064644Y-8285356D01*
X7135356Y-8285356D01*
X7735356Y-6285356D02*
X7735356Y-6214644D01*
X7664644Y-6214644D01*
X7664644Y-6285356D01*
X7735356Y-6285356D01*
D13*
X3050000Y-6805500D02*
X3109500Y-6746000D01*
X3050000Y-6686500D01*
X2990500Y-6746000D01*
X3050000Y-6805500D01*
X3050000Y-7059500D02*
X3109500Y-7000000D01*
X3050000Y-6940500D01*
X2990500Y-7000000D01*
X3050000Y-7059500D01*
X9800000Y-7559500D02*
X9859500Y-7500000D01*
X9800000Y-7440500D01*
X9740500Y-7500000D01*
X9800000Y-7559500D01*
X9800000Y-7813500D02*
X9859500Y-7754000D01*
X9800000Y-7694500D01*
X9740500Y-7754000D01*
X9800000Y-7813500D01*
D14*
X3832000Y-3690000D02*
X3952000Y-3810000D01*
X3952000Y-3690000D02*
X3832000Y-3810000D01*
X3952000Y-3750000D02*
G75*
G02*
X3832000Y-3750000I-60000J0D01*
G01*
X3832000Y-3750000D02*
G75*
G02*
X3952000Y-3750000I60000J0D01*
G01*
X4848000Y-3690000D02*
X4968000Y-3810000D01*
X4968000Y-3690000D02*
X4848000Y-3810000D01*
X4968000Y-3750000D02*
G75*
G02*
X4848000Y-3750000I-60000J0D01*
G01*
X4848000Y-3750000D02*
G75*
G02*
X4968000Y-3750000I60000J0D01*
G01*
D15*
X6840000Y-7580000D02*
X6970000Y-7710000D01*
X6970000Y-7580000D02*
X6840000Y-7710000D01*
X6905000Y-7580000D02*
X6905000Y-7710000D01*
X6840000Y-7645000D02*
X6970000Y-7645000D01*
X8255000Y-8185000D02*
X8385000Y-8315000D01*
X8385000Y-8185000D02*
X8255000Y-8315000D01*
X8320000Y-8185000D02*
X8320000Y-8315000D01*
X8255000Y-8250000D02*
X8385000Y-8250000D01*
X8260000Y-6980000D02*
X8390000Y-7110000D01*
X8390000Y-6980000D02*
X8260000Y-7110000D01*
X8325000Y-6980000D02*
X8325000Y-7110000D01*
X8260000Y-7045000D02*
X8390000Y-7045000D01*
D11*
X2758277Y-9313984D02*
X2758277Y-9113984D01*
X2758277Y-9113984D02*
X2805896Y-9113984D01*
X2805896Y-9113984D02*
X2834467Y-9123508D01*
X2834467Y-9123508D02*
X2853515Y-9142555D01*
X2853515Y-9142555D02*
X2863039Y-9161603D01*
X2863039Y-9161603D02*
X2872562Y-9199698D01*
X2872562Y-9199698D02*
X2872562Y-9228270D01*
X2872562Y-9228270D02*
X2863039Y-9266365D01*
X2863039Y-9266365D02*
X2853515Y-9285412D01*
X2853515Y-9285412D02*
X2834467Y-9304460D01*
X2834467Y-9304460D02*
X2805896Y-9313984D01*
X2805896Y-9313984D02*
X2758277Y-9313984D01*
X2958277Y-9313984D02*
X2958277Y-9180650D01*
X2958277Y-9218746D02*
X2967801Y-9199698D01*
X2967801Y-9199698D02*
X2977324Y-9190174D01*
X2977324Y-9190174D02*
X2996372Y-9180650D01*
X2996372Y-9180650D02*
X3015420Y-9180650D01*
X3082086Y-9313984D02*
X3082086Y-9180650D01*
X3082086Y-9113984D02*
X3072562Y-9123508D01*
X3072562Y-9123508D02*
X3082086Y-9133031D01*
X3082086Y-9133031D02*
X3091610Y-9123508D01*
X3091610Y-9123508D02*
X3082086Y-9113984D01*
X3082086Y-9113984D02*
X3082086Y-9133031D01*
X3205896Y-9313984D02*
X3186848Y-9304460D01*
X3186848Y-9304460D02*
X3177324Y-9285412D01*
X3177324Y-9285412D02*
X3177324Y-9113984D01*
X3310658Y-9313984D02*
X3291610Y-9304460D01*
X3291610Y-9304460D02*
X3282086Y-9285412D01*
X3282086Y-9285412D02*
X3282086Y-9113984D01*
X3539229Y-9313984D02*
X3539229Y-9113984D01*
X3539229Y-9113984D02*
X3605896Y-9256841D01*
X3605896Y-9256841D02*
X3672562Y-9113984D01*
X3672562Y-9113984D02*
X3672562Y-9313984D01*
X3853515Y-9313984D02*
X3853515Y-9209222D01*
X3853515Y-9209222D02*
X3843991Y-9190174D01*
X3843991Y-9190174D02*
X3824943Y-9180650D01*
X3824943Y-9180650D02*
X3786848Y-9180650D01*
X3786848Y-9180650D02*
X3767801Y-9190174D01*
X3853515Y-9304460D02*
X3834467Y-9313984D01*
X3834467Y-9313984D02*
X3786848Y-9313984D01*
X3786848Y-9313984D02*
X3767801Y-9304460D01*
X3767801Y-9304460D02*
X3758277Y-9285412D01*
X3758277Y-9285412D02*
X3758277Y-9266365D01*
X3758277Y-9266365D02*
X3767801Y-9247317D01*
X3767801Y-9247317D02*
X3786848Y-9237793D01*
X3786848Y-9237793D02*
X3834467Y-9237793D01*
X3834467Y-9237793D02*
X3853515Y-9228270D01*
X3948753Y-9180650D02*
X3948753Y-9380650D01*
X3948753Y-9190174D02*
X3967801Y-9180650D01*
X3967801Y-9180650D02*
X4005896Y-9180650D01*
X4005896Y-9180650D02*
X4024943Y-9190174D01*
X4024943Y-9190174D02*
X4034467Y-9199698D01*
X4034467Y-9199698D02*
X4043991Y-9218746D01*
X4043991Y-9218746D02*
X4043991Y-9275889D01*
X4043991Y-9275889D02*
X4034467Y-9294936D01*
X4034467Y-9294936D02*
X4024943Y-9304460D01*
X4024943Y-9304460D02*
X4005896Y-9313984D01*
X4005896Y-9313984D02*
X3967801Y-9313984D01*
X3967801Y-9313984D02*
X3948753Y-9304460D01*
X4129705Y-9294936D02*
X4139229Y-9304460D01*
X4139229Y-9304460D02*
X4129705Y-9313984D01*
X4129705Y-9313984D02*
X4120182Y-9304460D01*
X4120182Y-9304460D02*
X4129705Y-9294936D01*
X4129705Y-9294936D02*
X4129705Y-9313984D01*
X4129705Y-9190174D02*
X4139229Y-9199698D01*
X4139229Y-9199698D02*
X4129705Y-9209222D01*
X4129705Y-9209222D02*
X4120182Y-9199698D01*
X4120182Y-9199698D02*
X4129705Y-9190174D01*
X4129705Y-9190174D02*
X4129705Y-9209222D01*
D12*
X2422500Y-9605000D02*
X2497500Y-9680000D01*
X2497500Y-9605000D02*
X2422500Y-9680000D01*
D11*
X2796372Y-9533984D02*
X2815420Y-9533984D01*
X2815420Y-9533984D02*
X2834467Y-9543508D01*
X2834467Y-9543508D02*
X2843991Y-9553031D01*
X2843991Y-9553031D02*
X2853515Y-9572079D01*
X2853515Y-9572079D02*
X2863039Y-9610174D01*
X2863039Y-9610174D02*
X2863039Y-9657793D01*
X2863039Y-9657793D02*
X2853515Y-9695889D01*
X2853515Y-9695889D02*
X2843991Y-9714936D01*
X2843991Y-9714936D02*
X2834467Y-9724460D01*
X2834467Y-9724460D02*
X2815420Y-9733984D01*
X2815420Y-9733984D02*
X2796372Y-9733984D01*
X2796372Y-9733984D02*
X2777324Y-9724460D01*
X2777324Y-9724460D02*
X2767801Y-9714936D01*
X2767801Y-9714936D02*
X2758277Y-9695889D01*
X2758277Y-9695889D02*
X2748753Y-9657793D01*
X2748753Y-9657793D02*
X2748753Y-9610174D01*
X2748753Y-9610174D02*
X2758277Y-9572079D01*
X2758277Y-9572079D02*
X2767801Y-9553031D01*
X2767801Y-9553031D02*
X2777324Y-9543508D01*
X2777324Y-9543508D02*
X2796372Y-9533984D01*
X2948753Y-9714936D02*
X2958277Y-9724460D01*
X2958277Y-9724460D02*
X2948753Y-9733984D01*
X2948753Y-9733984D02*
X2939229Y-9724460D01*
X2939229Y-9724460D02*
X2948753Y-9714936D01*
X2948753Y-9714936D02*
X2948753Y-9733984D01*
X3024943Y-9533984D02*
X3158277Y-9533984D01*
X3158277Y-9533984D02*
X3072562Y-9733984D01*
X3329705Y-9533984D02*
X3234467Y-9533984D01*
X3234467Y-9533984D02*
X3224943Y-9629222D01*
X3224943Y-9629222D02*
X3234467Y-9619698D01*
X3234467Y-9619698D02*
X3253515Y-9610174D01*
X3253515Y-9610174D02*
X3301134Y-9610174D01*
X3301134Y-9610174D02*
X3320182Y-9619698D01*
X3320182Y-9619698D02*
X3329705Y-9629222D01*
X3329705Y-9629222D02*
X3339229Y-9648270D01*
X3339229Y-9648270D02*
X3339229Y-9695889D01*
X3339229Y-9695889D02*
X3329705Y-9714936D01*
X3329705Y-9714936D02*
X3320182Y-9724460D01*
X3320182Y-9724460D02*
X3301134Y-9733984D01*
X3301134Y-9733984D02*
X3253515Y-9733984D01*
X3253515Y-9733984D02*
X3234467Y-9724460D01*
X3234467Y-9724460D02*
X3224943Y-9714936D01*
X3463039Y-9533984D02*
X3482086Y-9533984D01*
X3482086Y-9533984D02*
X3501134Y-9543508D01*
X3501134Y-9543508D02*
X3510658Y-9553031D01*
X3510658Y-9553031D02*
X3520182Y-9572079D01*
X3520182Y-9572079D02*
X3529705Y-9610174D01*
X3529705Y-9610174D02*
X3529705Y-9657793D01*
X3529705Y-9657793D02*
X3520182Y-9695889D01*
X3520182Y-9695889D02*
X3510658Y-9714936D01*
X3510658Y-9714936D02*
X3501134Y-9724460D01*
X3501134Y-9724460D02*
X3482086Y-9733984D01*
X3482086Y-9733984D02*
X3463039Y-9733984D01*
X3463039Y-9733984D02*
X3443991Y-9724460D01*
X3443991Y-9724460D02*
X3434467Y-9714936D01*
X3434467Y-9714936D02*
X3424943Y-9695889D01*
X3424943Y-9695889D02*
X3415420Y-9657793D01*
X3415420Y-9657793D02*
X3415420Y-9610174D01*
X3415420Y-9610174D02*
X3424943Y-9572079D01*
X3424943Y-9572079D02*
X3434467Y-9553031D01*
X3434467Y-9553031D02*
X3443991Y-9543508D01*
X3443991Y-9543508D02*
X3463039Y-9533984D01*
X3615420Y-9733984D02*
X3615420Y-9600650D01*
X3615420Y-9619698D02*
X3624943Y-9610174D01*
X3624943Y-9610174D02*
X3643991Y-9600650D01*
X3643991Y-9600650D02*
X3672563Y-9600650D01*
X3672563Y-9600650D02*
X3691610Y-9610174D01*
X3691610Y-9610174D02*
X3701134Y-9629222D01*
X3701134Y-9629222D02*
X3701134Y-9733984D01*
X3701134Y-9629222D02*
X3710658Y-9610174D01*
X3710658Y-9610174D02*
X3729705Y-9600650D01*
X3729705Y-9600650D02*
X3758277Y-9600650D01*
X3758277Y-9600650D02*
X3777324Y-9610174D01*
X3777324Y-9610174D02*
X3786848Y-9629222D01*
X3786848Y-9629222D02*
X3786848Y-9733984D01*
X3882086Y-9733984D02*
X3882086Y-9600650D01*
X3882086Y-9619698D02*
X3891610Y-9610174D01*
X3891610Y-9610174D02*
X3910658Y-9600650D01*
X3910658Y-9600650D02*
X3939229Y-9600650D01*
X3939229Y-9600650D02*
X3958277Y-9610174D01*
X3958277Y-9610174D02*
X3967801Y-9629222D01*
X3967801Y-9629222D02*
X3967801Y-9733984D01*
X3967801Y-9629222D02*
X3977324Y-9610174D01*
X3977324Y-9610174D02*
X3996372Y-9600650D01*
X3996372Y-9600650D02*
X4024943Y-9600650D01*
X4024943Y-9600650D02*
X4043991Y-9610174D01*
X4043991Y-9610174D02*
X4053515Y-9629222D01*
X4053515Y-9629222D02*
X4053515Y-9733984D01*
X4443991Y-9524460D02*
X4272563Y-9781603D01*
X4701134Y-9533984D02*
X4720182Y-9533984D01*
X4720182Y-9533984D02*
X4739229Y-9543508D01*
X4739229Y-9543508D02*
X4748753Y-9553031D01*
X4748753Y-9553031D02*
X4758277Y-9572079D01*
X4758277Y-9572079D02*
X4767801Y-9610174D01*
X4767801Y-9610174D02*
X4767801Y-9657793D01*
X4767801Y-9657793D02*
X4758277Y-9695889D01*
X4758277Y-9695889D02*
X4748753Y-9714936D01*
X4748753Y-9714936D02*
X4739229Y-9724460D01*
X4739229Y-9724460D02*
X4720182Y-9733984D01*
X4720182Y-9733984D02*
X4701134Y-9733984D01*
X4701134Y-9733984D02*
X4682087Y-9724460D01*
X4682087Y-9724460D02*
X4672563Y-9714936D01*
X4672563Y-9714936D02*
X4663039Y-9695889D01*
X4663039Y-9695889D02*
X4653515Y-9657793D01*
X4653515Y-9657793D02*
X4653515Y-9610174D01*
X4653515Y-9610174D02*
X4663039Y-9572079D01*
X4663039Y-9572079D02*
X4672563Y-9553031D01*
X4672563Y-9553031D02*
X4682087Y-9543508D01*
X4682087Y-9543508D02*
X4701134Y-9533984D01*
X4853515Y-9714936D02*
X4863039Y-9724460D01*
X4863039Y-9724460D02*
X4853515Y-9733984D01*
X4853515Y-9733984D02*
X4843991Y-9724460D01*
X4843991Y-9724460D02*
X4853515Y-9714936D01*
X4853515Y-9714936D02*
X4853515Y-9733984D01*
X4986848Y-9533984D02*
X5005896Y-9533984D01*
X5005896Y-9533984D02*
X5024944Y-9543508D01*
X5024944Y-9543508D02*
X5034468Y-9553031D01*
X5034468Y-9553031D02*
X5043991Y-9572079D01*
X5043991Y-9572079D02*
X5053515Y-9610174D01*
X5053515Y-9610174D02*
X5053515Y-9657793D01*
X5053515Y-9657793D02*
X5043991Y-9695889D01*
X5043991Y-9695889D02*
X5034468Y-9714936D01*
X5034468Y-9714936D02*
X5024944Y-9724460D01*
X5024944Y-9724460D02*
X5005896Y-9733984D01*
X5005896Y-9733984D02*
X4986848Y-9733984D01*
X4986848Y-9733984D02*
X4967801Y-9724460D01*
X4967801Y-9724460D02*
X4958277Y-9714936D01*
X4958277Y-9714936D02*
X4948753Y-9695889D01*
X4948753Y-9695889D02*
X4939229Y-9657793D01*
X4939229Y-9657793D02*
X4939229Y-9610174D01*
X4939229Y-9610174D02*
X4948753Y-9572079D01*
X4948753Y-9572079D02*
X4958277Y-9553031D01*
X4958277Y-9553031D02*
X4967801Y-9543508D01*
X4967801Y-9543508D02*
X4986848Y-9533984D01*
X5129706Y-9553031D02*
X5139229Y-9543508D01*
X5139229Y-9543508D02*
X5158277Y-9533984D01*
X5158277Y-9533984D02*
X5205896Y-9533984D01*
X5205896Y-9533984D02*
X5224944Y-9543508D01*
X5224944Y-9543508D02*
X5234468Y-9553031D01*
X5234468Y-9553031D02*
X5243991Y-9572079D01*
X5243991Y-9572079D02*
X5243991Y-9591127D01*
X5243991Y-9591127D02*
X5234468Y-9619698D01*
X5234468Y-9619698D02*
X5120182Y-9733984D01*
X5120182Y-9733984D02*
X5243991Y-9733984D01*
X5339229Y-9733984D02*
X5377325Y-9733984D01*
X5377325Y-9733984D02*
X5396372Y-9724460D01*
X5396372Y-9724460D02*
X5405896Y-9714936D01*
X5405896Y-9714936D02*
X5424944Y-9686365D01*
X5424944Y-9686365D02*
X5434468Y-9648270D01*
X5434468Y-9648270D02*
X5434468Y-9572079D01*
X5434468Y-9572079D02*
X5424944Y-9553031D01*
X5424944Y-9553031D02*
X5415420Y-9543508D01*
X5415420Y-9543508D02*
X5396372Y-9533984D01*
X5396372Y-9533984D02*
X5358277Y-9533984D01*
X5358277Y-9533984D02*
X5339229Y-9543508D01*
X5339229Y-9543508D02*
X5329706Y-9553031D01*
X5329706Y-9553031D02*
X5320182Y-9572079D01*
X5320182Y-9572079D02*
X5320182Y-9619698D01*
X5320182Y-9619698D02*
X5329706Y-9638746D01*
X5329706Y-9638746D02*
X5339229Y-9648270D01*
X5339229Y-9648270D02*
X5358277Y-9657793D01*
X5358277Y-9657793D02*
X5396372Y-9657793D01*
X5396372Y-9657793D02*
X5415420Y-9648270D01*
X5415420Y-9648270D02*
X5424944Y-9638746D01*
X5424944Y-9638746D02*
X5434468Y-9619698D01*
X5615420Y-9533984D02*
X5520182Y-9533984D01*
X5520182Y-9533984D02*
X5510658Y-9629222D01*
X5510658Y-9629222D02*
X5520182Y-9619698D01*
X5520182Y-9619698D02*
X5539229Y-9610174D01*
X5539229Y-9610174D02*
X5586849Y-9610174D01*
X5586849Y-9610174D02*
X5605896Y-9619698D01*
X5605896Y-9619698D02*
X5615420Y-9629222D01*
X5615420Y-9629222D02*
X5624944Y-9648270D01*
X5624944Y-9648270D02*
X5624944Y-9695889D01*
X5624944Y-9695889D02*
X5615420Y-9714936D01*
X5615420Y-9714936D02*
X5605896Y-9724460D01*
X5605896Y-9724460D02*
X5586849Y-9733984D01*
X5586849Y-9733984D02*
X5539229Y-9733984D01*
X5539229Y-9733984D02*
X5520182Y-9724460D01*
X5520182Y-9724460D02*
X5510658Y-9714936D01*
X5701134Y-9533984D02*
X5701134Y-9572079D01*
X5777325Y-9533984D02*
X5777325Y-9572079D01*
X6072563Y-9810174D02*
X6063039Y-9800650D01*
X6063039Y-9800650D02*
X6043991Y-9772079D01*
X6043991Y-9772079D02*
X6034468Y-9753031D01*
X6034468Y-9753031D02*
X6024944Y-9724460D01*
X6024944Y-9724460D02*
X6015420Y-9676841D01*
X6015420Y-9676841D02*
X6015420Y-9638746D01*
X6015420Y-9638746D02*
X6024944Y-9591127D01*
X6024944Y-9591127D02*
X6034468Y-9562555D01*
X6034468Y-9562555D02*
X6043991Y-9543508D01*
X6043991Y-9543508D02*
X6063039Y-9514936D01*
X6063039Y-9514936D02*
X6072563Y-9505412D01*
X6129706Y-9533984D02*
X6253515Y-9533984D01*
X6253515Y-9533984D02*
X6186848Y-9610174D01*
X6186848Y-9610174D02*
X6215420Y-9610174D01*
X6215420Y-9610174D02*
X6234468Y-9619698D01*
X6234468Y-9619698D02*
X6243991Y-9629222D01*
X6243991Y-9629222D02*
X6253515Y-9648270D01*
X6253515Y-9648270D02*
X6253515Y-9695889D01*
X6253515Y-9695889D02*
X6243991Y-9714936D01*
X6243991Y-9714936D02*
X6234468Y-9724460D01*
X6234468Y-9724460D02*
X6215420Y-9733984D01*
X6215420Y-9733984D02*
X6158277Y-9733984D01*
X6158277Y-9733984D02*
X6139229Y-9724460D01*
X6139229Y-9724460D02*
X6129706Y-9714936D01*
X6491610Y-9733984D02*
X6491610Y-9533984D01*
X6577325Y-9733984D02*
X6577325Y-9629222D01*
X6577325Y-9629222D02*
X6567801Y-9610174D01*
X6567801Y-9610174D02*
X6548753Y-9600650D01*
X6548753Y-9600650D02*
X6520182Y-9600650D01*
X6520182Y-9600650D02*
X6501134Y-9610174D01*
X6501134Y-9610174D02*
X6491610Y-9619698D01*
X6701134Y-9733984D02*
X6682087Y-9724460D01*
X6682087Y-9724460D02*
X6672563Y-9714936D01*
X6672563Y-9714936D02*
X6663039Y-9695889D01*
X6663039Y-9695889D02*
X6663039Y-9638746D01*
X6663039Y-9638746D02*
X6672563Y-9619698D01*
X6672563Y-9619698D02*
X6682087Y-9610174D01*
X6682087Y-9610174D02*
X6701134Y-9600650D01*
X6701134Y-9600650D02*
X6729706Y-9600650D01*
X6729706Y-9600650D02*
X6748753Y-9610174D01*
X6748753Y-9610174D02*
X6758277Y-9619698D01*
X6758277Y-9619698D02*
X6767801Y-9638746D01*
X6767801Y-9638746D02*
X6767801Y-9695889D01*
X6767801Y-9695889D02*
X6758277Y-9714936D01*
X6758277Y-9714936D02*
X6748753Y-9724460D01*
X6748753Y-9724460D02*
X6729706Y-9733984D01*
X6729706Y-9733984D02*
X6701134Y-9733984D01*
X6882087Y-9733984D02*
X6863039Y-9724460D01*
X6863039Y-9724460D02*
X6853515Y-9705412D01*
X6853515Y-9705412D02*
X6853515Y-9533984D01*
X7034468Y-9724460D02*
X7015420Y-9733984D01*
X7015420Y-9733984D02*
X6977325Y-9733984D01*
X6977325Y-9733984D02*
X6958277Y-9724460D01*
X6958277Y-9724460D02*
X6948753Y-9705412D01*
X6948753Y-9705412D02*
X6948753Y-9629222D01*
X6948753Y-9629222D02*
X6958277Y-9610174D01*
X6958277Y-9610174D02*
X6977325Y-9600650D01*
X6977325Y-9600650D02*
X7015420Y-9600650D01*
X7015420Y-9600650D02*
X7034468Y-9610174D01*
X7034468Y-9610174D02*
X7043991Y-9629222D01*
X7043991Y-9629222D02*
X7043991Y-9648270D01*
X7043991Y-9648270D02*
X6948753Y-9667317D01*
X7120182Y-9724460D02*
X7139230Y-9733984D01*
X7139230Y-9733984D02*
X7177325Y-9733984D01*
X7177325Y-9733984D02*
X7196372Y-9724460D01*
X7196372Y-9724460D02*
X7205896Y-9705412D01*
X7205896Y-9705412D02*
X7205896Y-9695889D01*
X7205896Y-9695889D02*
X7196372Y-9676841D01*
X7196372Y-9676841D02*
X7177325Y-9667317D01*
X7177325Y-9667317D02*
X7148753Y-9667317D01*
X7148753Y-9667317D02*
X7129706Y-9657793D01*
X7129706Y-9657793D02*
X7120182Y-9638746D01*
X7120182Y-9638746D02*
X7120182Y-9629222D01*
X7120182Y-9629222D02*
X7129706Y-9610174D01*
X7129706Y-9610174D02*
X7148753Y-9600650D01*
X7148753Y-9600650D02*
X7177325Y-9600650D01*
X7177325Y-9600650D02*
X7196372Y-9610174D01*
X7272563Y-9810174D02*
X7282087Y-9800650D01*
X7282087Y-9800650D02*
X7301134Y-9772079D01*
X7301134Y-9772079D02*
X7310658Y-9753031D01*
X7310658Y-9753031D02*
X7320182Y-9724460D01*
X7320182Y-9724460D02*
X7329706Y-9676841D01*
X7329706Y-9676841D02*
X7329706Y-9638746D01*
X7329706Y-9638746D02*
X7320182Y-9591127D01*
X7320182Y-9591127D02*
X7310658Y-9562555D01*
X7310658Y-9562555D02*
X7301134Y-9543508D01*
X7301134Y-9543508D02*
X7282087Y-9514936D01*
X7282087Y-9514936D02*
X7272563Y-9505412D01*
D12*
X2497500Y-9906500D02*
G75*
G02*
X2417500Y-9906500I-40000J0D01*
G01*
X2417500Y-9906500D02*
G75*
G02*
X2497500Y-9906500I40000J0D01*
G01*
D11*
X2796372Y-9797984D02*
X2815420Y-9797984D01*
X2815420Y-9797984D02*
X2834467Y-9807508D01*
X2834467Y-9807508D02*
X2843991Y-9817031D01*
X2843991Y-9817031D02*
X2853515Y-9836079D01*
X2853515Y-9836079D02*
X2863039Y-9874174D01*
X2863039Y-9874174D02*
X2863039Y-9921793D01*
X2863039Y-9921793D02*
X2853515Y-9959889D01*
X2853515Y-9959889D02*
X2843991Y-9978936D01*
X2843991Y-9978936D02*
X2834467Y-9988460D01*
X2834467Y-9988460D02*
X2815420Y-9997984D01*
X2815420Y-9997984D02*
X2796372Y-9997984D01*
X2796372Y-9997984D02*
X2777324Y-9988460D01*
X2777324Y-9988460D02*
X2767801Y-9978936D01*
X2767801Y-9978936D02*
X2758277Y-9959889D01*
X2758277Y-9959889D02*
X2748753Y-9921793D01*
X2748753Y-9921793D02*
X2748753Y-9874174D01*
X2748753Y-9874174D02*
X2758277Y-9836079D01*
X2758277Y-9836079D02*
X2767801Y-9817031D01*
X2767801Y-9817031D02*
X2777324Y-9807508D01*
X2777324Y-9807508D02*
X2796372Y-9797984D01*
X2948753Y-9978936D02*
X2958277Y-9988460D01*
X2958277Y-9988460D02*
X2948753Y-9997984D01*
X2948753Y-9997984D02*
X2939229Y-9988460D01*
X2939229Y-9988460D02*
X2948753Y-9978936D01*
X2948753Y-9978936D02*
X2948753Y-9997984D01*
X3072562Y-9883698D02*
X3053515Y-9874174D01*
X3053515Y-9874174D02*
X3043991Y-9864650D01*
X3043991Y-9864650D02*
X3034467Y-9845603D01*
X3034467Y-9845603D02*
X3034467Y-9836079D01*
X3034467Y-9836079D02*
X3043991Y-9817031D01*
X3043991Y-9817031D02*
X3053515Y-9807508D01*
X3053515Y-9807508D02*
X3072562Y-9797984D01*
X3072562Y-9797984D02*
X3110658Y-9797984D01*
X3110658Y-9797984D02*
X3129705Y-9807508D01*
X3129705Y-9807508D02*
X3139229Y-9817031D01*
X3139229Y-9817031D02*
X3148753Y-9836079D01*
X3148753Y-9836079D02*
X3148753Y-9845603D01*
X3148753Y-9845603D02*
X3139229Y-9864650D01*
X3139229Y-9864650D02*
X3129705Y-9874174D01*
X3129705Y-9874174D02*
X3110658Y-9883698D01*
X3110658Y-9883698D02*
X3072562Y-9883698D01*
X3072562Y-9883698D02*
X3053515Y-9893222D01*
X3053515Y-9893222D02*
X3043991Y-9902746D01*
X3043991Y-9902746D02*
X3034467Y-9921793D01*
X3034467Y-9921793D02*
X3034467Y-9959889D01*
X3034467Y-9959889D02*
X3043991Y-9978936D01*
X3043991Y-9978936D02*
X3053515Y-9988460D01*
X3053515Y-9988460D02*
X3072562Y-9997984D01*
X3072562Y-9997984D02*
X3110658Y-9997984D01*
X3110658Y-9997984D02*
X3129705Y-9988460D01*
X3129705Y-9988460D02*
X3139229Y-9978936D01*
X3139229Y-9978936D02*
X3148753Y-9959889D01*
X3148753Y-9959889D02*
X3148753Y-9921793D01*
X3148753Y-9921793D02*
X3139229Y-9902746D01*
X3139229Y-9902746D02*
X3129705Y-9893222D01*
X3129705Y-9893222D02*
X3110658Y-9883698D01*
X3272562Y-9797984D02*
X3291610Y-9797984D01*
X3291610Y-9797984D02*
X3310658Y-9807508D01*
X3310658Y-9807508D02*
X3320182Y-9817031D01*
X3320182Y-9817031D02*
X3329705Y-9836079D01*
X3329705Y-9836079D02*
X3339229Y-9874174D01*
X3339229Y-9874174D02*
X3339229Y-9921793D01*
X3339229Y-9921793D02*
X3329705Y-9959889D01*
X3329705Y-9959889D02*
X3320182Y-9978936D01*
X3320182Y-9978936D02*
X3310658Y-9988460D01*
X3310658Y-9988460D02*
X3291610Y-9997984D01*
X3291610Y-9997984D02*
X3272562Y-9997984D01*
X3272562Y-9997984D02*
X3253515Y-9988460D01*
X3253515Y-9988460D02*
X3243991Y-9978936D01*
X3243991Y-9978936D02*
X3234467Y-9959889D01*
X3234467Y-9959889D02*
X3224943Y-9921793D01*
X3224943Y-9921793D02*
X3224943Y-9874174D01*
X3224943Y-9874174D02*
X3234467Y-9836079D01*
X3234467Y-9836079D02*
X3243991Y-9817031D01*
X3243991Y-9817031D02*
X3253515Y-9807508D01*
X3253515Y-9807508D02*
X3272562Y-9797984D01*
X3463039Y-9797984D02*
X3482086Y-9797984D01*
X3482086Y-9797984D02*
X3501134Y-9807508D01*
X3501134Y-9807508D02*
X3510658Y-9817031D01*
X3510658Y-9817031D02*
X3520182Y-9836079D01*
X3520182Y-9836079D02*
X3529705Y-9874174D01*
X3529705Y-9874174D02*
X3529705Y-9921793D01*
X3529705Y-9921793D02*
X3520182Y-9959889D01*
X3520182Y-9959889D02*
X3510658Y-9978936D01*
X3510658Y-9978936D02*
X3501134Y-9988460D01*
X3501134Y-9988460D02*
X3482086Y-9997984D01*
X3482086Y-9997984D02*
X3463039Y-9997984D01*
X3463039Y-9997984D02*
X3443991Y-9988460D01*
X3443991Y-9988460D02*
X3434467Y-9978936D01*
X3434467Y-9978936D02*
X3424943Y-9959889D01*
X3424943Y-9959889D02*
X3415420Y-9921793D01*
X3415420Y-9921793D02*
X3415420Y-9874174D01*
X3415420Y-9874174D02*
X3424943Y-9836079D01*
X3424943Y-9836079D02*
X3434467Y-9817031D01*
X3434467Y-9817031D02*
X3443991Y-9807508D01*
X3443991Y-9807508D02*
X3463039Y-9797984D01*
X3615420Y-9997984D02*
X3615420Y-9864650D01*
X3615420Y-9883698D02*
X3624943Y-9874174D01*
X3624943Y-9874174D02*
X3643991Y-9864650D01*
X3643991Y-9864650D02*
X3672563Y-9864650D01*
X3672563Y-9864650D02*
X3691610Y-9874174D01*
X3691610Y-9874174D02*
X3701134Y-9893222D01*
X3701134Y-9893222D02*
X3701134Y-9997984D01*
X3701134Y-9893222D02*
X3710658Y-9874174D01*
X3710658Y-9874174D02*
X3729705Y-9864650D01*
X3729705Y-9864650D02*
X3758277Y-9864650D01*
X3758277Y-9864650D02*
X3777324Y-9874174D01*
X3777324Y-9874174D02*
X3786848Y-9893222D01*
X3786848Y-9893222D02*
X3786848Y-9997984D01*
X3882086Y-9997984D02*
X3882086Y-9864650D01*
X3882086Y-9883698D02*
X3891610Y-9874174D01*
X3891610Y-9874174D02*
X3910658Y-9864650D01*
X3910658Y-9864650D02*
X3939229Y-9864650D01*
X3939229Y-9864650D02*
X3958277Y-9874174D01*
X3958277Y-9874174D02*
X3967801Y-9893222D01*
X3967801Y-9893222D02*
X3967801Y-9997984D01*
X3967801Y-9893222D02*
X3977324Y-9874174D01*
X3977324Y-9874174D02*
X3996372Y-9864650D01*
X3996372Y-9864650D02*
X4024943Y-9864650D01*
X4024943Y-9864650D02*
X4043991Y-9874174D01*
X4043991Y-9874174D02*
X4053515Y-9893222D01*
X4053515Y-9893222D02*
X4053515Y-9997984D01*
X4443991Y-9788460D02*
X4272563Y-10045603D01*
X4701134Y-9797984D02*
X4720182Y-9797984D01*
X4720182Y-9797984D02*
X4739229Y-9807508D01*
X4739229Y-9807508D02*
X4748753Y-9817031D01*
X4748753Y-9817031D02*
X4758277Y-9836079D01*
X4758277Y-9836079D02*
X4767801Y-9874174D01*
X4767801Y-9874174D02*
X4767801Y-9921793D01*
X4767801Y-9921793D02*
X4758277Y-9959889D01*
X4758277Y-9959889D02*
X4748753Y-9978936D01*
X4748753Y-9978936D02*
X4739229Y-9988460D01*
X4739229Y-9988460D02*
X4720182Y-9997984D01*
X4720182Y-9997984D02*
X4701134Y-9997984D01*
X4701134Y-9997984D02*
X4682087Y-9988460D01*
X4682087Y-9988460D02*
X4672563Y-9978936D01*
X4672563Y-9978936D02*
X4663039Y-9959889D01*
X4663039Y-9959889D02*
X4653515Y-9921793D01*
X4653515Y-9921793D02*
X4653515Y-9874174D01*
X4653515Y-9874174D02*
X4663039Y-9836079D01*
X4663039Y-9836079D02*
X4672563Y-9817031D01*
X4672563Y-9817031D02*
X4682087Y-9807508D01*
X4682087Y-9807508D02*
X4701134Y-9797984D01*
X4853515Y-9978936D02*
X4863039Y-9988460D01*
X4863039Y-9988460D02*
X4853515Y-9997984D01*
X4853515Y-9997984D02*
X4843991Y-9988460D01*
X4843991Y-9988460D02*
X4853515Y-9978936D01*
X4853515Y-9978936D02*
X4853515Y-9997984D01*
X4986848Y-9797984D02*
X5005896Y-9797984D01*
X5005896Y-9797984D02*
X5024944Y-9807508D01*
X5024944Y-9807508D02*
X5034468Y-9817031D01*
X5034468Y-9817031D02*
X5043991Y-9836079D01*
X5043991Y-9836079D02*
X5053515Y-9874174D01*
X5053515Y-9874174D02*
X5053515Y-9921793D01*
X5053515Y-9921793D02*
X5043991Y-9959889D01*
X5043991Y-9959889D02*
X5034468Y-9978936D01*
X5034468Y-9978936D02*
X5024944Y-9988460D01*
X5024944Y-9988460D02*
X5005896Y-9997984D01*
X5005896Y-9997984D02*
X4986848Y-9997984D01*
X4986848Y-9997984D02*
X4967801Y-9988460D01*
X4967801Y-9988460D02*
X4958277Y-9978936D01*
X4958277Y-9978936D02*
X4948753Y-9959889D01*
X4948753Y-9959889D02*
X4939229Y-9921793D01*
X4939229Y-9921793D02*
X4939229Y-9874174D01*
X4939229Y-9874174D02*
X4948753Y-9836079D01*
X4948753Y-9836079D02*
X4958277Y-9817031D01*
X4958277Y-9817031D02*
X4967801Y-9807508D01*
X4967801Y-9807508D02*
X4986848Y-9797984D01*
X5120182Y-9797984D02*
X5243991Y-9797984D01*
X5243991Y-9797984D02*
X5177325Y-9874174D01*
X5177325Y-9874174D02*
X5205896Y-9874174D01*
X5205896Y-9874174D02*
X5224944Y-9883698D01*
X5224944Y-9883698D02*
X5234468Y-9893222D01*
X5234468Y-9893222D02*
X5243991Y-9912270D01*
X5243991Y-9912270D02*
X5243991Y-9959889D01*
X5243991Y-9959889D02*
X5234468Y-9978936D01*
X5234468Y-9978936D02*
X5224944Y-9988460D01*
X5224944Y-9988460D02*
X5205896Y-9997984D01*
X5205896Y-9997984D02*
X5148753Y-9997984D01*
X5148753Y-9997984D02*
X5129706Y-9988460D01*
X5129706Y-9988460D02*
X5120182Y-9978936D01*
X5434468Y-9997984D02*
X5320182Y-9997984D01*
X5377325Y-9997984D02*
X5377325Y-9797984D01*
X5377325Y-9797984D02*
X5358277Y-9826555D01*
X5358277Y-9826555D02*
X5339229Y-9845603D01*
X5339229Y-9845603D02*
X5320182Y-9855127D01*
X5615420Y-9797984D02*
X5520182Y-9797984D01*
X5520182Y-9797984D02*
X5510658Y-9893222D01*
X5510658Y-9893222D02*
X5520182Y-9883698D01*
X5520182Y-9883698D02*
X5539229Y-9874174D01*
X5539229Y-9874174D02*
X5586849Y-9874174D01*
X5586849Y-9874174D02*
X5605896Y-9883698D01*
X5605896Y-9883698D02*
X5615420Y-9893222D01*
X5615420Y-9893222D02*
X5624944Y-9912270D01*
X5624944Y-9912270D02*
X5624944Y-9959889D01*
X5624944Y-9959889D02*
X5615420Y-9978936D01*
X5615420Y-9978936D02*
X5605896Y-9988460D01*
X5605896Y-9988460D02*
X5586849Y-9997984D01*
X5586849Y-9997984D02*
X5539229Y-9997984D01*
X5539229Y-9997984D02*
X5520182Y-9988460D01*
X5520182Y-9988460D02*
X5510658Y-9978936D01*
X5701134Y-9797984D02*
X5701134Y-9836079D01*
X5777325Y-9797984D02*
X5777325Y-9836079D01*
X6072563Y-10074174D02*
X6063039Y-10064650D01*
X6063039Y-10064650D02*
X6043991Y-10036079D01*
X6043991Y-10036079D02*
X6034468Y-10017031D01*
X6034468Y-10017031D02*
X6024944Y-9988460D01*
X6024944Y-9988460D02*
X6015420Y-9940841D01*
X6015420Y-9940841D02*
X6015420Y-9902746D01*
X6015420Y-9902746D02*
X6024944Y-9855127D01*
X6024944Y-9855127D02*
X6034468Y-9826555D01*
X6034468Y-9826555D02*
X6043991Y-9807508D01*
X6043991Y-9807508D02*
X6063039Y-9778936D01*
X6063039Y-9778936D02*
X6072563Y-9769412D01*
X6234468Y-9797984D02*
X6196372Y-9797984D01*
X6196372Y-9797984D02*
X6177325Y-9807508D01*
X6177325Y-9807508D02*
X6167801Y-9817031D01*
X6167801Y-9817031D02*
X6148753Y-9845603D01*
X6148753Y-9845603D02*
X6139229Y-9883698D01*
X6139229Y-9883698D02*
X6139229Y-9959889D01*
X6139229Y-9959889D02*
X6148753Y-9978936D01*
X6148753Y-9978936D02*
X6158277Y-9988460D01*
X6158277Y-9988460D02*
X6177325Y-9997984D01*
X6177325Y-9997984D02*
X6215420Y-9997984D01*
X6215420Y-9997984D02*
X6234468Y-9988460D01*
X6234468Y-9988460D02*
X6243991Y-9978936D01*
X6243991Y-9978936D02*
X6253515Y-9959889D01*
X6253515Y-9959889D02*
X6253515Y-9912270D01*
X6253515Y-9912270D02*
X6243991Y-9893222D01*
X6243991Y-9893222D02*
X6234468Y-9883698D01*
X6234468Y-9883698D02*
X6215420Y-9874174D01*
X6215420Y-9874174D02*
X6177325Y-9874174D01*
X6177325Y-9874174D02*
X6158277Y-9883698D01*
X6158277Y-9883698D02*
X6148753Y-9893222D01*
X6148753Y-9893222D02*
X6139229Y-9912270D01*
X6491610Y-9997984D02*
X6491610Y-9797984D01*
X6577325Y-9997984D02*
X6577325Y-9893222D01*
X6577325Y-9893222D02*
X6567801Y-9874174D01*
X6567801Y-9874174D02*
X6548753Y-9864650D01*
X6548753Y-9864650D02*
X6520182Y-9864650D01*
X6520182Y-9864650D02*
X6501134Y-9874174D01*
X6501134Y-9874174D02*
X6491610Y-9883698D01*
X6701134Y-9997984D02*
X6682087Y-9988460D01*
X6682087Y-9988460D02*
X6672563Y-9978936D01*
X6672563Y-9978936D02*
X6663039Y-9959889D01*
X6663039Y-9959889D02*
X6663039Y-9902746D01*
X6663039Y-9902746D02*
X6672563Y-9883698D01*
X6672563Y-9883698D02*
X6682087Y-9874174D01*
X6682087Y-9874174D02*
X6701134Y-9864650D01*
X6701134Y-9864650D02*
X6729706Y-9864650D01*
X6729706Y-9864650D02*
X6748753Y-9874174D01*
X6748753Y-9874174D02*
X6758277Y-9883698D01*
X6758277Y-9883698D02*
X6767801Y-9902746D01*
X6767801Y-9902746D02*
X6767801Y-9959889D01*
X6767801Y-9959889D02*
X6758277Y-9978936D01*
X6758277Y-9978936D02*
X6748753Y-9988460D01*
X6748753Y-9988460D02*
X6729706Y-9997984D01*
X6729706Y-9997984D02*
X6701134Y-9997984D01*
X6882087Y-9997984D02*
X6863039Y-9988460D01*
X6863039Y-9988460D02*
X6853515Y-9969412D01*
X6853515Y-9969412D02*
X6853515Y-9797984D01*
X7034468Y-9988460D02*
X7015420Y-9997984D01*
X7015420Y-9997984D02*
X6977325Y-9997984D01*
X6977325Y-9997984D02*
X6958277Y-9988460D01*
X6958277Y-9988460D02*
X6948753Y-9969412D01*
X6948753Y-9969412D02*
X6948753Y-9893222D01*
X6948753Y-9893222D02*
X6958277Y-9874174D01*
X6958277Y-9874174D02*
X6977325Y-9864650D01*
X6977325Y-9864650D02*
X7015420Y-9864650D01*
X7015420Y-9864650D02*
X7034468Y-9874174D01*
X7034468Y-9874174D02*
X7043991Y-9893222D01*
X7043991Y-9893222D02*
X7043991Y-9912270D01*
X7043991Y-9912270D02*
X6948753Y-9931317D01*
X7120182Y-9988460D02*
X7139230Y-9997984D01*
X7139230Y-9997984D02*
X7177325Y-9997984D01*
X7177325Y-9997984D02*
X7196372Y-9988460D01*
X7196372Y-9988460D02*
X7205896Y-9969412D01*
X7205896Y-9969412D02*
X7205896Y-9959889D01*
X7205896Y-9959889D02*
X7196372Y-9940841D01*
X7196372Y-9940841D02*
X7177325Y-9931317D01*
X7177325Y-9931317D02*
X7148753Y-9931317D01*
X7148753Y-9931317D02*
X7129706Y-9921793D01*
X7129706Y-9921793D02*
X7120182Y-9902746D01*
X7120182Y-9902746D02*
X7120182Y-9893222D01*
X7120182Y-9893222D02*
X7129706Y-9874174D01*
X7129706Y-9874174D02*
X7148753Y-9864650D01*
X7148753Y-9864650D02*
X7177325Y-9864650D01*
X7177325Y-9864650D02*
X7196372Y-9874174D01*
X7272563Y-10074174D02*
X7282087Y-10064650D01*
X7282087Y-10064650D02*
X7301134Y-10036079D01*
X7301134Y-10036079D02*
X7310658Y-10017031D01*
X7310658Y-10017031D02*
X7320182Y-9988460D01*
X7320182Y-9988460D02*
X7329706Y-9940841D01*
X7329706Y-9940841D02*
X7329706Y-9902746D01*
X7329706Y-9902746D02*
X7320182Y-9855127D01*
X7320182Y-9855127D02*
X7310658Y-9826555D01*
X7310658Y-9826555D02*
X7301134Y-9807508D01*
X7301134Y-9807508D02*
X7282087Y-9778936D01*
X7282087Y-9778936D02*
X7272563Y-9769412D01*
D12*
X2452500Y-10125500D02*
X2452500Y-10215500D01*
X2407500Y-10170500D02*
X2497500Y-10170500D01*
D11*
X2796372Y-10061984D02*
X2815420Y-10061984D01*
X2815420Y-10061984D02*
X2834467Y-10071508D01*
X2834467Y-10071508D02*
X2843991Y-10081031D01*
X2843991Y-10081031D02*
X2853515Y-10100079D01*
X2853515Y-10100079D02*
X2863039Y-10138174D01*
X2863039Y-10138174D02*
X2863039Y-10185793D01*
X2863039Y-10185793D02*
X2853515Y-10223889D01*
X2853515Y-10223889D02*
X2843991Y-10242936D01*
X2843991Y-10242936D02*
X2834467Y-10252460D01*
X2834467Y-10252460D02*
X2815420Y-10261984D01*
X2815420Y-10261984D02*
X2796372Y-10261984D01*
X2796372Y-10261984D02*
X2777324Y-10252460D01*
X2777324Y-10252460D02*
X2767801Y-10242936D01*
X2767801Y-10242936D02*
X2758277Y-10223889D01*
X2758277Y-10223889D02*
X2748753Y-10185793D01*
X2748753Y-10185793D02*
X2748753Y-10138174D01*
X2748753Y-10138174D02*
X2758277Y-10100079D01*
X2758277Y-10100079D02*
X2767801Y-10081031D01*
X2767801Y-10081031D02*
X2777324Y-10071508D01*
X2777324Y-10071508D02*
X2796372Y-10061984D01*
X2948753Y-10242936D02*
X2958277Y-10252460D01*
X2958277Y-10252460D02*
X2948753Y-10261984D01*
X2948753Y-10261984D02*
X2939229Y-10252460D01*
X2939229Y-10252460D02*
X2948753Y-10242936D01*
X2948753Y-10242936D02*
X2948753Y-10261984D01*
X3053515Y-10261984D02*
X3091610Y-10261984D01*
X3091610Y-10261984D02*
X3110658Y-10252460D01*
X3110658Y-10252460D02*
X3120182Y-10242936D01*
X3120182Y-10242936D02*
X3139229Y-10214365D01*
X3139229Y-10214365D02*
X3148753Y-10176270D01*
X3148753Y-10176270D02*
X3148753Y-10100079D01*
X3148753Y-10100079D02*
X3139229Y-10081031D01*
X3139229Y-10081031D02*
X3129705Y-10071508D01*
X3129705Y-10071508D02*
X3110658Y-10061984D01*
X3110658Y-10061984D02*
X3072562Y-10061984D01*
X3072562Y-10061984D02*
X3053515Y-10071508D01*
X3053515Y-10071508D02*
X3043991Y-10081031D01*
X3043991Y-10081031D02*
X3034467Y-10100079D01*
X3034467Y-10100079D02*
X3034467Y-10147698D01*
X3034467Y-10147698D02*
X3043991Y-10166746D01*
X3043991Y-10166746D02*
X3053515Y-10176270D01*
X3053515Y-10176270D02*
X3072562Y-10185793D01*
X3072562Y-10185793D02*
X3110658Y-10185793D01*
X3110658Y-10185793D02*
X3129705Y-10176270D01*
X3129705Y-10176270D02*
X3139229Y-10166746D01*
X3139229Y-10166746D02*
X3148753Y-10147698D01*
X3272562Y-10061984D02*
X3291610Y-10061984D01*
X3291610Y-10061984D02*
X3310658Y-10071508D01*
X3310658Y-10071508D02*
X3320182Y-10081031D01*
X3320182Y-10081031D02*
X3329705Y-10100079D01*
X3329705Y-10100079D02*
X3339229Y-10138174D01*
X3339229Y-10138174D02*
X3339229Y-10185793D01*
X3339229Y-10185793D02*
X3329705Y-10223889D01*
X3329705Y-10223889D02*
X3320182Y-10242936D01*
X3320182Y-10242936D02*
X3310658Y-10252460D01*
X3310658Y-10252460D02*
X3291610Y-10261984D01*
X3291610Y-10261984D02*
X3272562Y-10261984D01*
X3272562Y-10261984D02*
X3253515Y-10252460D01*
X3253515Y-10252460D02*
X3243991Y-10242936D01*
X3243991Y-10242936D02*
X3234467Y-10223889D01*
X3234467Y-10223889D02*
X3224943Y-10185793D01*
X3224943Y-10185793D02*
X3224943Y-10138174D01*
X3224943Y-10138174D02*
X3234467Y-10100079D01*
X3234467Y-10100079D02*
X3243991Y-10081031D01*
X3243991Y-10081031D02*
X3253515Y-10071508D01*
X3253515Y-10071508D02*
X3272562Y-10061984D01*
X3463039Y-10061984D02*
X3482086Y-10061984D01*
X3482086Y-10061984D02*
X3501134Y-10071508D01*
X3501134Y-10071508D02*
X3510658Y-10081031D01*
X3510658Y-10081031D02*
X3520182Y-10100079D01*
X3520182Y-10100079D02*
X3529705Y-10138174D01*
X3529705Y-10138174D02*
X3529705Y-10185793D01*
X3529705Y-10185793D02*
X3520182Y-10223889D01*
X3520182Y-10223889D02*
X3510658Y-10242936D01*
X3510658Y-10242936D02*
X3501134Y-10252460D01*
X3501134Y-10252460D02*
X3482086Y-10261984D01*
X3482086Y-10261984D02*
X3463039Y-10261984D01*
X3463039Y-10261984D02*
X3443991Y-10252460D01*
X3443991Y-10252460D02*
X3434467Y-10242936D01*
X3434467Y-10242936D02*
X3424943Y-10223889D01*
X3424943Y-10223889D02*
X3415420Y-10185793D01*
X3415420Y-10185793D02*
X3415420Y-10138174D01*
X3415420Y-10138174D02*
X3424943Y-10100079D01*
X3424943Y-10100079D02*
X3434467Y-10081031D01*
X3434467Y-10081031D02*
X3443991Y-10071508D01*
X3443991Y-10071508D02*
X3463039Y-10061984D01*
X3615420Y-10261984D02*
X3615420Y-10128650D01*
X3615420Y-10147698D02*
X3624943Y-10138174D01*
X3624943Y-10138174D02*
X3643991Y-10128650D01*
X3643991Y-10128650D02*
X3672563Y-10128650D01*
X3672563Y-10128650D02*
X3691610Y-10138174D01*
X3691610Y-10138174D02*
X3701134Y-10157222D01*
X3701134Y-10157222D02*
X3701134Y-10261984D01*
X3701134Y-10157222D02*
X3710658Y-10138174D01*
X3710658Y-10138174D02*
X3729705Y-10128650D01*
X3729705Y-10128650D02*
X3758277Y-10128650D01*
X3758277Y-10128650D02*
X3777324Y-10138174D01*
X3777324Y-10138174D02*
X3786848Y-10157222D01*
X3786848Y-10157222D02*
X3786848Y-10261984D01*
X3882086Y-10261984D02*
X3882086Y-10128650D01*
X3882086Y-10147698D02*
X3891610Y-10138174D01*
X3891610Y-10138174D02*
X3910658Y-10128650D01*
X3910658Y-10128650D02*
X3939229Y-10128650D01*
X3939229Y-10128650D02*
X3958277Y-10138174D01*
X3958277Y-10138174D02*
X3967801Y-10157222D01*
X3967801Y-10157222D02*
X3967801Y-10261984D01*
X3967801Y-10157222D02*
X3977324Y-10138174D01*
X3977324Y-10138174D02*
X3996372Y-10128650D01*
X3996372Y-10128650D02*
X4024943Y-10128650D01*
X4024943Y-10128650D02*
X4043991Y-10138174D01*
X4043991Y-10138174D02*
X4053515Y-10157222D01*
X4053515Y-10157222D02*
X4053515Y-10261984D01*
X4443991Y-10052460D02*
X4272563Y-10309603D01*
X4701134Y-10061984D02*
X4720182Y-10061984D01*
X4720182Y-10061984D02*
X4739229Y-10071508D01*
X4739229Y-10071508D02*
X4748753Y-10081031D01*
X4748753Y-10081031D02*
X4758277Y-10100079D01*
X4758277Y-10100079D02*
X4767801Y-10138174D01*
X4767801Y-10138174D02*
X4767801Y-10185793D01*
X4767801Y-10185793D02*
X4758277Y-10223889D01*
X4758277Y-10223889D02*
X4748753Y-10242936D01*
X4748753Y-10242936D02*
X4739229Y-10252460D01*
X4739229Y-10252460D02*
X4720182Y-10261984D01*
X4720182Y-10261984D02*
X4701134Y-10261984D01*
X4701134Y-10261984D02*
X4682087Y-10252460D01*
X4682087Y-10252460D02*
X4672563Y-10242936D01*
X4672563Y-10242936D02*
X4663039Y-10223889D01*
X4663039Y-10223889D02*
X4653515Y-10185793D01*
X4653515Y-10185793D02*
X4653515Y-10138174D01*
X4653515Y-10138174D02*
X4663039Y-10100079D01*
X4663039Y-10100079D02*
X4672563Y-10081031D01*
X4672563Y-10081031D02*
X4682087Y-10071508D01*
X4682087Y-10071508D02*
X4701134Y-10061984D01*
X4853515Y-10242936D02*
X4863039Y-10252460D01*
X4863039Y-10252460D02*
X4853515Y-10261984D01*
X4853515Y-10261984D02*
X4843991Y-10252460D01*
X4843991Y-10252460D02*
X4853515Y-10242936D01*
X4853515Y-10242936D02*
X4853515Y-10261984D01*
X4986848Y-10061984D02*
X5005896Y-10061984D01*
X5005896Y-10061984D02*
X5024944Y-10071508D01*
X5024944Y-10071508D02*
X5034468Y-10081031D01*
X5034468Y-10081031D02*
X5043991Y-10100079D01*
X5043991Y-10100079D02*
X5053515Y-10138174D01*
X5053515Y-10138174D02*
X5053515Y-10185793D01*
X5053515Y-10185793D02*
X5043991Y-10223889D01*
X5043991Y-10223889D02*
X5034468Y-10242936D01*
X5034468Y-10242936D02*
X5024944Y-10252460D01*
X5024944Y-10252460D02*
X5005896Y-10261984D01*
X5005896Y-10261984D02*
X4986848Y-10261984D01*
X4986848Y-10261984D02*
X4967801Y-10252460D01*
X4967801Y-10252460D02*
X4958277Y-10242936D01*
X4958277Y-10242936D02*
X4948753Y-10223889D01*
X4948753Y-10223889D02*
X4939229Y-10185793D01*
X4939229Y-10185793D02*
X4939229Y-10138174D01*
X4939229Y-10138174D02*
X4948753Y-10100079D01*
X4948753Y-10100079D02*
X4958277Y-10081031D01*
X4958277Y-10081031D02*
X4967801Y-10071508D01*
X4967801Y-10071508D02*
X4986848Y-10061984D01*
X5120182Y-10061984D02*
X5243991Y-10061984D01*
X5243991Y-10061984D02*
X5177325Y-10138174D01*
X5177325Y-10138174D02*
X5205896Y-10138174D01*
X5205896Y-10138174D02*
X5224944Y-10147698D01*
X5224944Y-10147698D02*
X5234468Y-10157222D01*
X5234468Y-10157222D02*
X5243991Y-10176270D01*
X5243991Y-10176270D02*
X5243991Y-10223889D01*
X5243991Y-10223889D02*
X5234468Y-10242936D01*
X5234468Y-10242936D02*
X5224944Y-10252460D01*
X5224944Y-10252460D02*
X5205896Y-10261984D01*
X5205896Y-10261984D02*
X5148753Y-10261984D01*
X5148753Y-10261984D02*
X5129706Y-10252460D01*
X5129706Y-10252460D02*
X5120182Y-10242936D01*
X5424944Y-10061984D02*
X5329706Y-10061984D01*
X5329706Y-10061984D02*
X5320182Y-10157222D01*
X5320182Y-10157222D02*
X5329706Y-10147698D01*
X5329706Y-10147698D02*
X5348753Y-10138174D01*
X5348753Y-10138174D02*
X5396372Y-10138174D01*
X5396372Y-10138174D02*
X5415420Y-10147698D01*
X5415420Y-10147698D02*
X5424944Y-10157222D01*
X5424944Y-10157222D02*
X5434468Y-10176270D01*
X5434468Y-10176270D02*
X5434468Y-10223889D01*
X5434468Y-10223889D02*
X5424944Y-10242936D01*
X5424944Y-10242936D02*
X5415420Y-10252460D01*
X5415420Y-10252460D02*
X5396372Y-10261984D01*
X5396372Y-10261984D02*
X5348753Y-10261984D01*
X5348753Y-10261984D02*
X5329706Y-10252460D01*
X5329706Y-10252460D02*
X5320182Y-10242936D01*
X5605896Y-10128650D02*
X5605896Y-10261984D01*
X5558277Y-10052460D02*
X5510658Y-10195317D01*
X5510658Y-10195317D02*
X5634467Y-10195317D01*
X5701134Y-10061984D02*
X5701134Y-10100079D01*
X5777325Y-10061984D02*
X5777325Y-10100079D01*
X6072563Y-10338174D02*
X6063039Y-10328650D01*
X6063039Y-10328650D02*
X6043991Y-10300079D01*
X6043991Y-10300079D02*
X6034468Y-10281031D01*
X6034468Y-10281031D02*
X6024944Y-10252460D01*
X6024944Y-10252460D02*
X6015420Y-10204841D01*
X6015420Y-10204841D02*
X6015420Y-10166746D01*
X6015420Y-10166746D02*
X6024944Y-10119127D01*
X6024944Y-10119127D02*
X6034468Y-10090555D01*
X6034468Y-10090555D02*
X6043991Y-10071508D01*
X6043991Y-10071508D02*
X6063039Y-10042936D01*
X6063039Y-10042936D02*
X6072563Y-10033412D01*
X6139229Y-10081031D02*
X6148753Y-10071508D01*
X6148753Y-10071508D02*
X6167801Y-10061984D01*
X6167801Y-10061984D02*
X6215420Y-10061984D01*
X6215420Y-10061984D02*
X6234468Y-10071508D01*
X6234468Y-10071508D02*
X6243991Y-10081031D01*
X6243991Y-10081031D02*
X6253515Y-10100079D01*
X6253515Y-10100079D02*
X6253515Y-10119127D01*
X6253515Y-10119127D02*
X6243991Y-10147698D01*
X6243991Y-10147698D02*
X6129706Y-10261984D01*
X6129706Y-10261984D02*
X6253515Y-10261984D01*
X6491610Y-10261984D02*
X6491610Y-10061984D01*
X6577325Y-10261984D02*
X6577325Y-10157222D01*
X6577325Y-10157222D02*
X6567801Y-10138174D01*
X6567801Y-10138174D02*
X6548753Y-10128650D01*
X6548753Y-10128650D02*
X6520182Y-10128650D01*
X6520182Y-10128650D02*
X6501134Y-10138174D01*
X6501134Y-10138174D02*
X6491610Y-10147698D01*
X6701134Y-10261984D02*
X6682087Y-10252460D01*
X6682087Y-10252460D02*
X6672563Y-10242936D01*
X6672563Y-10242936D02*
X6663039Y-10223889D01*
X6663039Y-10223889D02*
X6663039Y-10166746D01*
X6663039Y-10166746D02*
X6672563Y-10147698D01*
X6672563Y-10147698D02*
X6682087Y-10138174D01*
X6682087Y-10138174D02*
X6701134Y-10128650D01*
X6701134Y-10128650D02*
X6729706Y-10128650D01*
X6729706Y-10128650D02*
X6748753Y-10138174D01*
X6748753Y-10138174D02*
X6758277Y-10147698D01*
X6758277Y-10147698D02*
X6767801Y-10166746D01*
X6767801Y-10166746D02*
X6767801Y-10223889D01*
X6767801Y-10223889D02*
X6758277Y-10242936D01*
X6758277Y-10242936D02*
X6748753Y-10252460D01*
X6748753Y-10252460D02*
X6729706Y-10261984D01*
X6729706Y-10261984D02*
X6701134Y-10261984D01*
X6882087Y-10261984D02*
X6863039Y-10252460D01*
X6863039Y-10252460D02*
X6853515Y-10233412D01*
X6853515Y-10233412D02*
X6853515Y-10061984D01*
X7034468Y-10252460D02*
X7015420Y-10261984D01*
X7015420Y-10261984D02*
X6977325Y-10261984D01*
X6977325Y-10261984D02*
X6958277Y-10252460D01*
X6958277Y-10252460D02*
X6948753Y-10233412D01*
X6948753Y-10233412D02*
X6948753Y-10157222D01*
X6948753Y-10157222D02*
X6958277Y-10138174D01*
X6958277Y-10138174D02*
X6977325Y-10128650D01*
X6977325Y-10128650D02*
X7015420Y-10128650D01*
X7015420Y-10128650D02*
X7034468Y-10138174D01*
X7034468Y-10138174D02*
X7043991Y-10157222D01*
X7043991Y-10157222D02*
X7043991Y-10176270D01*
X7043991Y-10176270D02*
X6948753Y-10195317D01*
X7120182Y-10252460D02*
X7139230Y-10261984D01*
X7139230Y-10261984D02*
X7177325Y-10261984D01*
X7177325Y-10261984D02*
X7196372Y-10252460D01*
X7196372Y-10252460D02*
X7205896Y-10233412D01*
X7205896Y-10233412D02*
X7205896Y-10223889D01*
X7205896Y-10223889D02*
X7196372Y-10204841D01*
X7196372Y-10204841D02*
X7177325Y-10195317D01*
X7177325Y-10195317D02*
X7148753Y-10195317D01*
X7148753Y-10195317D02*
X7129706Y-10185793D01*
X7129706Y-10185793D02*
X7120182Y-10166746D01*
X7120182Y-10166746D02*
X7120182Y-10157222D01*
X7120182Y-10157222D02*
X7129706Y-10138174D01*
X7129706Y-10138174D02*
X7148753Y-10128650D01*
X7148753Y-10128650D02*
X7177325Y-10128650D01*
X7177325Y-10128650D02*
X7196372Y-10138174D01*
X7272563Y-10338174D02*
X7282087Y-10328650D01*
X7282087Y-10328650D02*
X7301134Y-10300079D01*
X7301134Y-10300079D02*
X7310658Y-10281031D01*
X7310658Y-10281031D02*
X7320182Y-10252460D01*
X7320182Y-10252460D02*
X7329706Y-10204841D01*
X7329706Y-10204841D02*
X7329706Y-10166746D01*
X7329706Y-10166746D02*
X7320182Y-10119127D01*
X7320182Y-10119127D02*
X7310658Y-10090555D01*
X7310658Y-10090555D02*
X7301134Y-10071508D01*
X7301134Y-10071508D02*
X7282087Y-10042936D01*
X7282087Y-10042936D02*
X7272563Y-10033412D01*
D12*
X2482856Y-10469856D02*
X2482856Y-10399144D01*
X2412144Y-10399144D01*
X2412144Y-10469856D01*
X2482856Y-10469856D01*
D11*
X2863039Y-10525984D02*
X2748753Y-10525984D01*
X2805896Y-10525984D02*
X2805896Y-10325984D01*
X2805896Y-10325984D02*
X2786848Y-10354555D01*
X2786848Y-10354555D02*
X2767801Y-10373603D01*
X2767801Y-10373603D02*
X2748753Y-10383127D01*
X2948753Y-10506936D02*
X2958277Y-10516460D01*
X2958277Y-10516460D02*
X2948753Y-10525984D01*
X2948753Y-10525984D02*
X2939229Y-10516460D01*
X2939229Y-10516460D02*
X2948753Y-10506936D01*
X2948753Y-10506936D02*
X2948753Y-10525984D01*
X3082086Y-10325984D02*
X3101134Y-10325984D01*
X3101134Y-10325984D02*
X3120182Y-10335508D01*
X3120182Y-10335508D02*
X3129705Y-10345031D01*
X3129705Y-10345031D02*
X3139229Y-10364079D01*
X3139229Y-10364079D02*
X3148753Y-10402174D01*
X3148753Y-10402174D02*
X3148753Y-10449793D01*
X3148753Y-10449793D02*
X3139229Y-10487889D01*
X3139229Y-10487889D02*
X3129705Y-10506936D01*
X3129705Y-10506936D02*
X3120182Y-10516460D01*
X3120182Y-10516460D02*
X3101134Y-10525984D01*
X3101134Y-10525984D02*
X3082086Y-10525984D01*
X3082086Y-10525984D02*
X3063039Y-10516460D01*
X3063039Y-10516460D02*
X3053515Y-10506936D01*
X3053515Y-10506936D02*
X3043991Y-10487889D01*
X3043991Y-10487889D02*
X3034467Y-10449793D01*
X3034467Y-10449793D02*
X3034467Y-10402174D01*
X3034467Y-10402174D02*
X3043991Y-10364079D01*
X3043991Y-10364079D02*
X3053515Y-10345031D01*
X3053515Y-10345031D02*
X3063039Y-10335508D01*
X3063039Y-10335508D02*
X3082086Y-10325984D01*
X3272562Y-10325984D02*
X3291610Y-10325984D01*
X3291610Y-10325984D02*
X3310658Y-10335508D01*
X3310658Y-10335508D02*
X3320182Y-10345031D01*
X3320182Y-10345031D02*
X3329705Y-10364079D01*
X3329705Y-10364079D02*
X3339229Y-10402174D01*
X3339229Y-10402174D02*
X3339229Y-10449793D01*
X3339229Y-10449793D02*
X3329705Y-10487889D01*
X3329705Y-10487889D02*
X3320182Y-10506936D01*
X3320182Y-10506936D02*
X3310658Y-10516460D01*
X3310658Y-10516460D02*
X3291610Y-10525984D01*
X3291610Y-10525984D02*
X3272562Y-10525984D01*
X3272562Y-10525984D02*
X3253515Y-10516460D01*
X3253515Y-10516460D02*
X3243991Y-10506936D01*
X3243991Y-10506936D02*
X3234467Y-10487889D01*
X3234467Y-10487889D02*
X3224943Y-10449793D01*
X3224943Y-10449793D02*
X3224943Y-10402174D01*
X3224943Y-10402174D02*
X3234467Y-10364079D01*
X3234467Y-10364079D02*
X3243991Y-10345031D01*
X3243991Y-10345031D02*
X3253515Y-10335508D01*
X3253515Y-10335508D02*
X3272562Y-10325984D01*
X3463039Y-10325984D02*
X3482086Y-10325984D01*
X3482086Y-10325984D02*
X3501134Y-10335508D01*
X3501134Y-10335508D02*
X3510658Y-10345031D01*
X3510658Y-10345031D02*
X3520182Y-10364079D01*
X3520182Y-10364079D02*
X3529705Y-10402174D01*
X3529705Y-10402174D02*
X3529705Y-10449793D01*
X3529705Y-10449793D02*
X3520182Y-10487889D01*
X3520182Y-10487889D02*
X3510658Y-10506936D01*
X3510658Y-10506936D02*
X3501134Y-10516460D01*
X3501134Y-10516460D02*
X3482086Y-10525984D01*
X3482086Y-10525984D02*
X3463039Y-10525984D01*
X3463039Y-10525984D02*
X3443991Y-10516460D01*
X3443991Y-10516460D02*
X3434467Y-10506936D01*
X3434467Y-10506936D02*
X3424943Y-10487889D01*
X3424943Y-10487889D02*
X3415420Y-10449793D01*
X3415420Y-10449793D02*
X3415420Y-10402174D01*
X3415420Y-10402174D02*
X3424943Y-10364079D01*
X3424943Y-10364079D02*
X3434467Y-10345031D01*
X3434467Y-10345031D02*
X3443991Y-10335508D01*
X3443991Y-10335508D02*
X3463039Y-10325984D01*
X3615420Y-10525984D02*
X3615420Y-10392650D01*
X3615420Y-10411698D02*
X3624943Y-10402174D01*
X3624943Y-10402174D02*
X3643991Y-10392650D01*
X3643991Y-10392650D02*
X3672563Y-10392650D01*
X3672563Y-10392650D02*
X3691610Y-10402174D01*
X3691610Y-10402174D02*
X3701134Y-10421222D01*
X3701134Y-10421222D02*
X3701134Y-10525984D01*
X3701134Y-10421222D02*
X3710658Y-10402174D01*
X3710658Y-10402174D02*
X3729705Y-10392650D01*
X3729705Y-10392650D02*
X3758277Y-10392650D01*
X3758277Y-10392650D02*
X3777324Y-10402174D01*
X3777324Y-10402174D02*
X3786848Y-10421222D01*
X3786848Y-10421222D02*
X3786848Y-10525984D01*
X3882086Y-10525984D02*
X3882086Y-10392650D01*
X3882086Y-10411698D02*
X3891610Y-10402174D01*
X3891610Y-10402174D02*
X3910658Y-10392650D01*
X3910658Y-10392650D02*
X3939229Y-10392650D01*
X3939229Y-10392650D02*
X3958277Y-10402174D01*
X3958277Y-10402174D02*
X3967801Y-10421222D01*
X3967801Y-10421222D02*
X3967801Y-10525984D01*
X3967801Y-10421222D02*
X3977324Y-10402174D01*
X3977324Y-10402174D02*
X3996372Y-10392650D01*
X3996372Y-10392650D02*
X4024943Y-10392650D01*
X4024943Y-10392650D02*
X4043991Y-10402174D01*
X4043991Y-10402174D02*
X4053515Y-10421222D01*
X4053515Y-10421222D02*
X4053515Y-10525984D01*
X4443991Y-10316460D02*
X4272563Y-10573603D01*
X4701134Y-10325984D02*
X4720182Y-10325984D01*
X4720182Y-10325984D02*
X4739229Y-10335508D01*
X4739229Y-10335508D02*
X4748753Y-10345031D01*
X4748753Y-10345031D02*
X4758277Y-10364079D01*
X4758277Y-10364079D02*
X4767801Y-10402174D01*
X4767801Y-10402174D02*
X4767801Y-10449793D01*
X4767801Y-10449793D02*
X4758277Y-10487889D01*
X4758277Y-10487889D02*
X4748753Y-10506936D01*
X4748753Y-10506936D02*
X4739229Y-10516460D01*
X4739229Y-10516460D02*
X4720182Y-10525984D01*
X4720182Y-10525984D02*
X4701134Y-10525984D01*
X4701134Y-10525984D02*
X4682087Y-10516460D01*
X4682087Y-10516460D02*
X4672563Y-10506936D01*
X4672563Y-10506936D02*
X4663039Y-10487889D01*
X4663039Y-10487889D02*
X4653515Y-10449793D01*
X4653515Y-10449793D02*
X4653515Y-10402174D01*
X4653515Y-10402174D02*
X4663039Y-10364079D01*
X4663039Y-10364079D02*
X4672563Y-10345031D01*
X4672563Y-10345031D02*
X4682087Y-10335508D01*
X4682087Y-10335508D02*
X4701134Y-10325984D01*
X4853515Y-10506936D02*
X4863039Y-10516460D01*
X4863039Y-10516460D02*
X4853515Y-10525984D01*
X4853515Y-10525984D02*
X4843991Y-10516460D01*
X4843991Y-10516460D02*
X4853515Y-10506936D01*
X4853515Y-10506936D02*
X4853515Y-10525984D01*
X4986848Y-10325984D02*
X5005896Y-10325984D01*
X5005896Y-10325984D02*
X5024944Y-10335508D01*
X5024944Y-10335508D02*
X5034468Y-10345031D01*
X5034468Y-10345031D02*
X5043991Y-10364079D01*
X5043991Y-10364079D02*
X5053515Y-10402174D01*
X5053515Y-10402174D02*
X5053515Y-10449793D01*
X5053515Y-10449793D02*
X5043991Y-10487889D01*
X5043991Y-10487889D02*
X5034468Y-10506936D01*
X5034468Y-10506936D02*
X5024944Y-10516460D01*
X5024944Y-10516460D02*
X5005896Y-10525984D01*
X5005896Y-10525984D02*
X4986848Y-10525984D01*
X4986848Y-10525984D02*
X4967801Y-10516460D01*
X4967801Y-10516460D02*
X4958277Y-10506936D01*
X4958277Y-10506936D02*
X4948753Y-10487889D01*
X4948753Y-10487889D02*
X4939229Y-10449793D01*
X4939229Y-10449793D02*
X4939229Y-10402174D01*
X4939229Y-10402174D02*
X4948753Y-10364079D01*
X4948753Y-10364079D02*
X4958277Y-10345031D01*
X4958277Y-10345031D02*
X4967801Y-10335508D01*
X4967801Y-10335508D02*
X4986848Y-10325984D01*
X5120182Y-10325984D02*
X5243991Y-10325984D01*
X5243991Y-10325984D02*
X5177325Y-10402174D01*
X5177325Y-10402174D02*
X5205896Y-10402174D01*
X5205896Y-10402174D02*
X5224944Y-10411698D01*
X5224944Y-10411698D02*
X5234468Y-10421222D01*
X5234468Y-10421222D02*
X5243991Y-10440270D01*
X5243991Y-10440270D02*
X5243991Y-10487889D01*
X5243991Y-10487889D02*
X5234468Y-10506936D01*
X5234468Y-10506936D02*
X5224944Y-10516460D01*
X5224944Y-10516460D02*
X5205896Y-10525984D01*
X5205896Y-10525984D02*
X5148753Y-10525984D01*
X5148753Y-10525984D02*
X5129706Y-10516460D01*
X5129706Y-10516460D02*
X5120182Y-10506936D01*
X5339229Y-10525984D02*
X5377325Y-10525984D01*
X5377325Y-10525984D02*
X5396372Y-10516460D01*
X5396372Y-10516460D02*
X5405896Y-10506936D01*
X5405896Y-10506936D02*
X5424944Y-10478365D01*
X5424944Y-10478365D02*
X5434468Y-10440270D01*
X5434468Y-10440270D02*
X5434468Y-10364079D01*
X5434468Y-10364079D02*
X5424944Y-10345031D01*
X5424944Y-10345031D02*
X5415420Y-10335508D01*
X5415420Y-10335508D02*
X5396372Y-10325984D01*
X5396372Y-10325984D02*
X5358277Y-10325984D01*
X5358277Y-10325984D02*
X5339229Y-10335508D01*
X5339229Y-10335508D02*
X5329706Y-10345031D01*
X5329706Y-10345031D02*
X5320182Y-10364079D01*
X5320182Y-10364079D02*
X5320182Y-10411698D01*
X5320182Y-10411698D02*
X5329706Y-10430746D01*
X5329706Y-10430746D02*
X5339229Y-10440270D01*
X5339229Y-10440270D02*
X5358277Y-10449793D01*
X5358277Y-10449793D02*
X5396372Y-10449793D01*
X5396372Y-10449793D02*
X5415420Y-10440270D01*
X5415420Y-10440270D02*
X5424944Y-10430746D01*
X5424944Y-10430746D02*
X5434468Y-10411698D01*
X5605896Y-10392650D02*
X5605896Y-10525984D01*
X5558277Y-10316460D02*
X5510658Y-10459317D01*
X5510658Y-10459317D02*
X5634467Y-10459317D01*
X5701134Y-10325984D02*
X5701134Y-10364079D01*
X5777325Y-10325984D02*
X5777325Y-10364079D01*
X6072563Y-10602174D02*
X6063039Y-10592650D01*
X6063039Y-10592650D02*
X6043991Y-10564079D01*
X6043991Y-10564079D02*
X6034468Y-10545031D01*
X6034468Y-10545031D02*
X6024944Y-10516460D01*
X6024944Y-10516460D02*
X6015420Y-10468841D01*
X6015420Y-10468841D02*
X6015420Y-10430746D01*
X6015420Y-10430746D02*
X6024944Y-10383127D01*
X6024944Y-10383127D02*
X6034468Y-10354555D01*
X6034468Y-10354555D02*
X6043991Y-10335508D01*
X6043991Y-10335508D02*
X6063039Y-10306936D01*
X6063039Y-10306936D02*
X6072563Y-10297412D01*
X6129706Y-10325984D02*
X6253515Y-10325984D01*
X6253515Y-10325984D02*
X6186848Y-10402174D01*
X6186848Y-10402174D02*
X6215420Y-10402174D01*
X6215420Y-10402174D02*
X6234468Y-10411698D01*
X6234468Y-10411698D02*
X6243991Y-10421222D01*
X6243991Y-10421222D02*
X6253515Y-10440270D01*
X6253515Y-10440270D02*
X6253515Y-10487889D01*
X6253515Y-10487889D02*
X6243991Y-10506936D01*
X6243991Y-10506936D02*
X6234468Y-10516460D01*
X6234468Y-10516460D02*
X6215420Y-10525984D01*
X6215420Y-10525984D02*
X6158277Y-10525984D01*
X6158277Y-10525984D02*
X6139229Y-10516460D01*
X6139229Y-10516460D02*
X6129706Y-10506936D01*
X6491610Y-10525984D02*
X6491610Y-10325984D01*
X6577325Y-10525984D02*
X6577325Y-10421222D01*
X6577325Y-10421222D02*
X6567801Y-10402174D01*
X6567801Y-10402174D02*
X6548753Y-10392650D01*
X6548753Y-10392650D02*
X6520182Y-10392650D01*
X6520182Y-10392650D02*
X6501134Y-10402174D01*
X6501134Y-10402174D02*
X6491610Y-10411698D01*
X6701134Y-10525984D02*
X6682087Y-10516460D01*
X6682087Y-10516460D02*
X6672563Y-10506936D01*
X6672563Y-10506936D02*
X6663039Y-10487889D01*
X6663039Y-10487889D02*
X6663039Y-10430746D01*
X6663039Y-10430746D02*
X6672563Y-10411698D01*
X6672563Y-10411698D02*
X6682087Y-10402174D01*
X6682087Y-10402174D02*
X6701134Y-10392650D01*
X6701134Y-10392650D02*
X6729706Y-10392650D01*
X6729706Y-10392650D02*
X6748753Y-10402174D01*
X6748753Y-10402174D02*
X6758277Y-10411698D01*
X6758277Y-10411698D02*
X6767801Y-10430746D01*
X6767801Y-10430746D02*
X6767801Y-10487889D01*
X6767801Y-10487889D02*
X6758277Y-10506936D01*
X6758277Y-10506936D02*
X6748753Y-10516460D01*
X6748753Y-10516460D02*
X6729706Y-10525984D01*
X6729706Y-10525984D02*
X6701134Y-10525984D01*
X6882087Y-10525984D02*
X6863039Y-10516460D01*
X6863039Y-10516460D02*
X6853515Y-10497412D01*
X6853515Y-10497412D02*
X6853515Y-10325984D01*
X7034468Y-10516460D02*
X7015420Y-10525984D01*
X7015420Y-10525984D02*
X6977325Y-10525984D01*
X6977325Y-10525984D02*
X6958277Y-10516460D01*
X6958277Y-10516460D02*
X6948753Y-10497412D01*
X6948753Y-10497412D02*
X6948753Y-10421222D01*
X6948753Y-10421222D02*
X6958277Y-10402174D01*
X6958277Y-10402174D02*
X6977325Y-10392650D01*
X6977325Y-10392650D02*
X7015420Y-10392650D01*
X7015420Y-10392650D02*
X7034468Y-10402174D01*
X7034468Y-10402174D02*
X7043991Y-10421222D01*
X7043991Y-10421222D02*
X7043991Y-10440270D01*
X7043991Y-10440270D02*
X6948753Y-10459317D01*
X7120182Y-10516460D02*
X7139230Y-10525984D01*
X7139230Y-10525984D02*
X7177325Y-10525984D01*
X7177325Y-10525984D02*
X7196372Y-10516460D01*
X7196372Y-10516460D02*
X7205896Y-10497412D01*
X7205896Y-10497412D02*
X7205896Y-10487889D01*
X7205896Y-10487889D02*
X7196372Y-10468841D01*
X7196372Y-10468841D02*
X7177325Y-10459317D01*
X7177325Y-10459317D02*
X7148753Y-10459317D01*
X7148753Y-10459317D02*
X7129706Y-10449793D01*
X7129706Y-10449793D02*
X7120182Y-10430746D01*
X7120182Y-10430746D02*
X7120182Y-10421222D01*
X7120182Y-10421222D02*
X7129706Y-10402174D01*
X7129706Y-10402174D02*
X7148753Y-10392650D01*
X7148753Y-10392650D02*
X7177325Y-10392650D01*
X7177325Y-10392650D02*
X7196372Y-10402174D01*
X7272563Y-10602174D02*
X7282087Y-10592650D01*
X7282087Y-10592650D02*
X7301134Y-10564079D01*
X7301134Y-10564079D02*
X7310658Y-10545031D01*
X7310658Y-10545031D02*
X7320182Y-10516460D01*
X7320182Y-10516460D02*
X7329706Y-10468841D01*
X7329706Y-10468841D02*
X7329706Y-10430746D01*
X7329706Y-10430746D02*
X7320182Y-10383127D01*
X7320182Y-10383127D02*
X7310658Y-10354555D01*
X7310658Y-10354555D02*
X7301134Y-10335508D01*
X7301134Y-10335508D02*
X7282087Y-10306936D01*
X7282087Y-10306936D02*
X7272563Y-10297412D01*
D13*
X2438000Y-10758000D02*
X2497500Y-10698500D01*
X2438000Y-10639000D01*
X2378500Y-10698500D01*
X2438000Y-10758000D01*
D11*
X2863039Y-10789984D02*
X2748753Y-10789984D01*
X2805896Y-10789984D02*
X2805896Y-10589984D01*
X2805896Y-10589984D02*
X2786848Y-10618555D01*
X2786848Y-10618555D02*
X2767801Y-10637603D01*
X2767801Y-10637603D02*
X2748753Y-10647127D01*
X2948753Y-10770936D02*
X2958277Y-10780460D01*
X2958277Y-10780460D02*
X2948753Y-10789984D01*
X2948753Y-10789984D02*
X2939229Y-10780460D01*
X2939229Y-10780460D02*
X2948753Y-10770936D01*
X2948753Y-10770936D02*
X2948753Y-10789984D01*
X3148753Y-10789984D02*
X3034467Y-10789984D01*
X3091610Y-10789984D02*
X3091610Y-10589984D01*
X3091610Y-10589984D02*
X3072562Y-10618555D01*
X3072562Y-10618555D02*
X3053515Y-10637603D01*
X3053515Y-10637603D02*
X3034467Y-10647127D01*
X3243991Y-10789984D02*
X3282086Y-10789984D01*
X3282086Y-10789984D02*
X3301134Y-10780460D01*
X3301134Y-10780460D02*
X3310658Y-10770936D01*
X3310658Y-10770936D02*
X3329705Y-10742365D01*
X3329705Y-10742365D02*
X3339229Y-10704270D01*
X3339229Y-10704270D02*
X3339229Y-10628079D01*
X3339229Y-10628079D02*
X3329705Y-10609031D01*
X3329705Y-10609031D02*
X3320182Y-10599508D01*
X3320182Y-10599508D02*
X3301134Y-10589984D01*
X3301134Y-10589984D02*
X3263039Y-10589984D01*
X3263039Y-10589984D02*
X3243991Y-10599508D01*
X3243991Y-10599508D02*
X3234467Y-10609031D01*
X3234467Y-10609031D02*
X3224943Y-10628079D01*
X3224943Y-10628079D02*
X3224943Y-10675698D01*
X3224943Y-10675698D02*
X3234467Y-10694746D01*
X3234467Y-10694746D02*
X3243991Y-10704270D01*
X3243991Y-10704270D02*
X3263039Y-10713793D01*
X3263039Y-10713793D02*
X3301134Y-10713793D01*
X3301134Y-10713793D02*
X3320182Y-10704270D01*
X3320182Y-10704270D02*
X3329705Y-10694746D01*
X3329705Y-10694746D02*
X3339229Y-10675698D01*
X3463039Y-10589984D02*
X3482086Y-10589984D01*
X3482086Y-10589984D02*
X3501134Y-10599508D01*
X3501134Y-10599508D02*
X3510658Y-10609031D01*
X3510658Y-10609031D02*
X3520182Y-10628079D01*
X3520182Y-10628079D02*
X3529705Y-10666174D01*
X3529705Y-10666174D02*
X3529705Y-10713793D01*
X3529705Y-10713793D02*
X3520182Y-10751889D01*
X3520182Y-10751889D02*
X3510658Y-10770936D01*
X3510658Y-10770936D02*
X3501134Y-10780460D01*
X3501134Y-10780460D02*
X3482086Y-10789984D01*
X3482086Y-10789984D02*
X3463039Y-10789984D01*
X3463039Y-10789984D02*
X3443991Y-10780460D01*
X3443991Y-10780460D02*
X3434467Y-10770936D01*
X3434467Y-10770936D02*
X3424943Y-10751889D01*
X3424943Y-10751889D02*
X3415420Y-10713793D01*
X3415420Y-10713793D02*
X3415420Y-10666174D01*
X3415420Y-10666174D02*
X3424943Y-10628079D01*
X3424943Y-10628079D02*
X3434467Y-10609031D01*
X3434467Y-10609031D02*
X3443991Y-10599508D01*
X3443991Y-10599508D02*
X3463039Y-10589984D01*
X3615420Y-10789984D02*
X3615420Y-10656650D01*
X3615420Y-10675698D02*
X3624943Y-10666174D01*
X3624943Y-10666174D02*
X3643991Y-10656650D01*
X3643991Y-10656650D02*
X3672563Y-10656650D01*
X3672563Y-10656650D02*
X3691610Y-10666174D01*
X3691610Y-10666174D02*
X3701134Y-10685222D01*
X3701134Y-10685222D02*
X3701134Y-10789984D01*
X3701134Y-10685222D02*
X3710658Y-10666174D01*
X3710658Y-10666174D02*
X3729705Y-10656650D01*
X3729705Y-10656650D02*
X3758277Y-10656650D01*
X3758277Y-10656650D02*
X3777324Y-10666174D01*
X3777324Y-10666174D02*
X3786848Y-10685222D01*
X3786848Y-10685222D02*
X3786848Y-10789984D01*
X3882086Y-10789984D02*
X3882086Y-10656650D01*
X3882086Y-10675698D02*
X3891610Y-10666174D01*
X3891610Y-10666174D02*
X3910658Y-10656650D01*
X3910658Y-10656650D02*
X3939229Y-10656650D01*
X3939229Y-10656650D02*
X3958277Y-10666174D01*
X3958277Y-10666174D02*
X3967801Y-10685222D01*
X3967801Y-10685222D02*
X3967801Y-10789984D01*
X3967801Y-10685222D02*
X3977324Y-10666174D01*
X3977324Y-10666174D02*
X3996372Y-10656650D01*
X3996372Y-10656650D02*
X4024943Y-10656650D01*
X4024943Y-10656650D02*
X4043991Y-10666174D01*
X4043991Y-10666174D02*
X4053515Y-10685222D01*
X4053515Y-10685222D02*
X4053515Y-10789984D01*
X4443991Y-10580460D02*
X4272563Y-10837603D01*
X4701134Y-10589984D02*
X4720182Y-10589984D01*
X4720182Y-10589984D02*
X4739229Y-10599508D01*
X4739229Y-10599508D02*
X4748753Y-10609031D01*
X4748753Y-10609031D02*
X4758277Y-10628079D01*
X4758277Y-10628079D02*
X4767801Y-10666174D01*
X4767801Y-10666174D02*
X4767801Y-10713793D01*
X4767801Y-10713793D02*
X4758277Y-10751889D01*
X4758277Y-10751889D02*
X4748753Y-10770936D01*
X4748753Y-10770936D02*
X4739229Y-10780460D01*
X4739229Y-10780460D02*
X4720182Y-10789984D01*
X4720182Y-10789984D02*
X4701134Y-10789984D01*
X4701134Y-10789984D02*
X4682087Y-10780460D01*
X4682087Y-10780460D02*
X4672563Y-10770936D01*
X4672563Y-10770936D02*
X4663039Y-10751889D01*
X4663039Y-10751889D02*
X4653515Y-10713793D01*
X4653515Y-10713793D02*
X4653515Y-10666174D01*
X4653515Y-10666174D02*
X4663039Y-10628079D01*
X4663039Y-10628079D02*
X4672563Y-10609031D01*
X4672563Y-10609031D02*
X4682087Y-10599508D01*
X4682087Y-10599508D02*
X4701134Y-10589984D01*
X4853515Y-10770936D02*
X4863039Y-10780460D01*
X4863039Y-10780460D02*
X4853515Y-10789984D01*
X4853515Y-10789984D02*
X4843991Y-10780460D01*
X4843991Y-10780460D02*
X4853515Y-10770936D01*
X4853515Y-10770936D02*
X4853515Y-10789984D01*
X4986848Y-10589984D02*
X5005896Y-10589984D01*
X5005896Y-10589984D02*
X5024944Y-10599508D01*
X5024944Y-10599508D02*
X5034468Y-10609031D01*
X5034468Y-10609031D02*
X5043991Y-10628079D01*
X5043991Y-10628079D02*
X5053515Y-10666174D01*
X5053515Y-10666174D02*
X5053515Y-10713793D01*
X5053515Y-10713793D02*
X5043991Y-10751889D01*
X5043991Y-10751889D02*
X5034468Y-10770936D01*
X5034468Y-10770936D02*
X5024944Y-10780460D01*
X5024944Y-10780460D02*
X5005896Y-10789984D01*
X5005896Y-10789984D02*
X4986848Y-10789984D01*
X4986848Y-10789984D02*
X4967801Y-10780460D01*
X4967801Y-10780460D02*
X4958277Y-10770936D01*
X4958277Y-10770936D02*
X4948753Y-10751889D01*
X4948753Y-10751889D02*
X4939229Y-10713793D01*
X4939229Y-10713793D02*
X4939229Y-10666174D01*
X4939229Y-10666174D02*
X4948753Y-10628079D01*
X4948753Y-10628079D02*
X4958277Y-10609031D01*
X4958277Y-10609031D02*
X4967801Y-10599508D01*
X4967801Y-10599508D02*
X4986848Y-10589984D01*
X5224944Y-10656650D02*
X5224944Y-10789984D01*
X5177325Y-10580460D02*
X5129706Y-10723317D01*
X5129706Y-10723317D02*
X5253515Y-10723317D01*
X5415420Y-10589984D02*
X5377325Y-10589984D01*
X5377325Y-10589984D02*
X5358277Y-10599508D01*
X5358277Y-10599508D02*
X5348753Y-10609031D01*
X5348753Y-10609031D02*
X5329706Y-10637603D01*
X5329706Y-10637603D02*
X5320182Y-10675698D01*
X5320182Y-10675698D02*
X5320182Y-10751889D01*
X5320182Y-10751889D02*
X5329706Y-10770936D01*
X5329706Y-10770936D02*
X5339229Y-10780460D01*
X5339229Y-10780460D02*
X5358277Y-10789984D01*
X5358277Y-10789984D02*
X5396372Y-10789984D01*
X5396372Y-10789984D02*
X5415420Y-10780460D01*
X5415420Y-10780460D02*
X5424944Y-10770936D01*
X5424944Y-10770936D02*
X5434468Y-10751889D01*
X5434468Y-10751889D02*
X5434468Y-10704270D01*
X5434468Y-10704270D02*
X5424944Y-10685222D01*
X5424944Y-10685222D02*
X5415420Y-10675698D01*
X5415420Y-10675698D02*
X5396372Y-10666174D01*
X5396372Y-10666174D02*
X5358277Y-10666174D01*
X5358277Y-10666174D02*
X5339229Y-10675698D01*
X5339229Y-10675698D02*
X5329706Y-10685222D01*
X5329706Y-10685222D02*
X5320182Y-10704270D01*
X5529706Y-10789984D02*
X5567801Y-10789984D01*
X5567801Y-10789984D02*
X5586849Y-10780460D01*
X5586849Y-10780460D02*
X5596372Y-10770936D01*
X5596372Y-10770936D02*
X5615420Y-10742365D01*
X5615420Y-10742365D02*
X5624944Y-10704270D01*
X5624944Y-10704270D02*
X5624944Y-10628079D01*
X5624944Y-10628079D02*
X5615420Y-10609031D01*
X5615420Y-10609031D02*
X5605896Y-10599508D01*
X5605896Y-10599508D02*
X5586849Y-10589984D01*
X5586849Y-10589984D02*
X5548753Y-10589984D01*
X5548753Y-10589984D02*
X5529706Y-10599508D01*
X5529706Y-10599508D02*
X5520182Y-10609031D01*
X5520182Y-10609031D02*
X5510658Y-10628079D01*
X5510658Y-10628079D02*
X5510658Y-10675698D01*
X5510658Y-10675698D02*
X5520182Y-10694746D01*
X5520182Y-10694746D02*
X5529706Y-10704270D01*
X5529706Y-10704270D02*
X5548753Y-10713793D01*
X5548753Y-10713793D02*
X5586849Y-10713793D01*
X5586849Y-10713793D02*
X5605896Y-10704270D01*
X5605896Y-10704270D02*
X5615420Y-10694746D01*
X5615420Y-10694746D02*
X5624944Y-10675698D01*
X5701134Y-10589984D02*
X5701134Y-10628079D01*
X5777325Y-10589984D02*
X5777325Y-10628079D01*
X6072563Y-10866174D02*
X6063039Y-10856650D01*
X6063039Y-10856650D02*
X6043991Y-10828079D01*
X6043991Y-10828079D02*
X6034468Y-10809031D01*
X6034468Y-10809031D02*
X6024944Y-10780460D01*
X6024944Y-10780460D02*
X6015420Y-10732841D01*
X6015420Y-10732841D02*
X6015420Y-10694746D01*
X6015420Y-10694746D02*
X6024944Y-10647127D01*
X6024944Y-10647127D02*
X6034468Y-10618555D01*
X6034468Y-10618555D02*
X6043991Y-10599508D01*
X6043991Y-10599508D02*
X6063039Y-10570936D01*
X6063039Y-10570936D02*
X6072563Y-10561412D01*
X6234468Y-10656650D02*
X6234468Y-10789984D01*
X6186848Y-10580460D02*
X6139229Y-10723317D01*
X6139229Y-10723317D02*
X6263039Y-10723317D01*
X6491610Y-10789984D02*
X6491610Y-10589984D01*
X6577325Y-10789984D02*
X6577325Y-10685222D01*
X6577325Y-10685222D02*
X6567801Y-10666174D01*
X6567801Y-10666174D02*
X6548753Y-10656650D01*
X6548753Y-10656650D02*
X6520182Y-10656650D01*
X6520182Y-10656650D02*
X6501134Y-10666174D01*
X6501134Y-10666174D02*
X6491610Y-10675698D01*
X6701134Y-10789984D02*
X6682087Y-10780460D01*
X6682087Y-10780460D02*
X6672563Y-10770936D01*
X6672563Y-10770936D02*
X6663039Y-10751889D01*
X6663039Y-10751889D02*
X6663039Y-10694746D01*
X6663039Y-10694746D02*
X6672563Y-10675698D01*
X6672563Y-10675698D02*
X6682087Y-10666174D01*
X6682087Y-10666174D02*
X6701134Y-10656650D01*
X6701134Y-10656650D02*
X6729706Y-10656650D01*
X6729706Y-10656650D02*
X6748753Y-10666174D01*
X6748753Y-10666174D02*
X6758277Y-10675698D01*
X6758277Y-10675698D02*
X6767801Y-10694746D01*
X6767801Y-10694746D02*
X6767801Y-10751889D01*
X6767801Y-10751889D02*
X6758277Y-10770936D01*
X6758277Y-10770936D02*
X6748753Y-10780460D01*
X6748753Y-10780460D02*
X6729706Y-10789984D01*
X6729706Y-10789984D02*
X6701134Y-10789984D01*
X6882087Y-10789984D02*
X6863039Y-10780460D01*
X6863039Y-10780460D02*
X6853515Y-10761412D01*
X6853515Y-10761412D02*
X6853515Y-10589984D01*
X7034468Y-10780460D02*
X7015420Y-10789984D01*
X7015420Y-10789984D02*
X6977325Y-10789984D01*
X6977325Y-10789984D02*
X6958277Y-10780460D01*
X6958277Y-10780460D02*
X6948753Y-10761412D01*
X6948753Y-10761412D02*
X6948753Y-10685222D01*
X6948753Y-10685222D02*
X6958277Y-10666174D01*
X6958277Y-10666174D02*
X6977325Y-10656650D01*
X6977325Y-10656650D02*
X7015420Y-10656650D01*
X7015420Y-10656650D02*
X7034468Y-10666174D01*
X7034468Y-10666174D02*
X7043991Y-10685222D01*
X7043991Y-10685222D02*
X7043991Y-10704270D01*
X7043991Y-10704270D02*
X6948753Y-10723317D01*
X7120182Y-10780460D02*
X7139230Y-10789984D01*
X7139230Y-10789984D02*
X7177325Y-10789984D01*
X7177325Y-10789984D02*
X7196372Y-10780460D01*
X7196372Y-10780460D02*
X7205896Y-10761412D01*
X7205896Y-10761412D02*
X7205896Y-10751889D01*
X7205896Y-10751889D02*
X7196372Y-10732841D01*
X7196372Y-10732841D02*
X7177325Y-10723317D01*
X7177325Y-10723317D02*
X7148753Y-10723317D01*
X7148753Y-10723317D02*
X7129706Y-10713793D01*
X7129706Y-10713793D02*
X7120182Y-10694746D01*
X7120182Y-10694746D02*
X7120182Y-10685222D01*
X7120182Y-10685222D02*
X7129706Y-10666174D01*
X7129706Y-10666174D02*
X7148753Y-10656650D01*
X7148753Y-10656650D02*
X7177325Y-10656650D01*
X7177325Y-10656650D02*
X7196372Y-10666174D01*
X7272563Y-10866174D02*
X7282087Y-10856650D01*
X7282087Y-10856650D02*
X7301134Y-10828079D01*
X7301134Y-10828079D02*
X7310658Y-10809031D01*
X7310658Y-10809031D02*
X7320182Y-10780460D01*
X7320182Y-10780460D02*
X7329706Y-10732841D01*
X7329706Y-10732841D02*
X7329706Y-10694746D01*
X7329706Y-10694746D02*
X7320182Y-10647127D01*
X7320182Y-10647127D02*
X7310658Y-10618555D01*
X7310658Y-10618555D02*
X7301134Y-10599508D01*
X7301134Y-10599508D02*
X7282087Y-10570936D01*
X7282087Y-10570936D02*
X7272563Y-10561412D01*
D14*
X2377500Y-10902500D02*
X2497500Y-11022500D01*
X2497500Y-10902500D02*
X2377500Y-11022500D01*
X2497500Y-10962500D02*
G75*
G02*
X2377500Y-10962500I-60000J0D01*
G01*
X2377500Y-10962500D02*
G75*
G02*
X2497500Y-10962500I60000J0D01*
G01*
D11*
X2863039Y-11053984D02*
X2748753Y-11053984D01*
X2805896Y-11053984D02*
X2805896Y-10853984D01*
X2805896Y-10853984D02*
X2786848Y-10882555D01*
X2786848Y-10882555D02*
X2767801Y-10901603D01*
X2767801Y-10901603D02*
X2748753Y-10911127D01*
X2948753Y-11034936D02*
X2958277Y-11044460D01*
X2958277Y-11044460D02*
X2948753Y-11053984D01*
X2948753Y-11053984D02*
X2939229Y-11044460D01*
X2939229Y-11044460D02*
X2948753Y-11034936D01*
X2948753Y-11034936D02*
X2948753Y-11053984D01*
X3034467Y-10873031D02*
X3043991Y-10863508D01*
X3043991Y-10863508D02*
X3063039Y-10853984D01*
X3063039Y-10853984D02*
X3110658Y-10853984D01*
X3110658Y-10853984D02*
X3129705Y-10863508D01*
X3129705Y-10863508D02*
X3139229Y-10873031D01*
X3139229Y-10873031D02*
X3148753Y-10892079D01*
X3148753Y-10892079D02*
X3148753Y-10911127D01*
X3148753Y-10911127D02*
X3139229Y-10939698D01*
X3139229Y-10939698D02*
X3024943Y-11053984D01*
X3024943Y-11053984D02*
X3148753Y-11053984D01*
X3272562Y-10853984D02*
X3291610Y-10853984D01*
X3291610Y-10853984D02*
X3310658Y-10863508D01*
X3310658Y-10863508D02*
X3320182Y-10873031D01*
X3320182Y-10873031D02*
X3329705Y-10892079D01*
X3329705Y-10892079D02*
X3339229Y-10930174D01*
X3339229Y-10930174D02*
X3339229Y-10977793D01*
X3339229Y-10977793D02*
X3329705Y-11015889D01*
X3329705Y-11015889D02*
X3320182Y-11034936D01*
X3320182Y-11034936D02*
X3310658Y-11044460D01*
X3310658Y-11044460D02*
X3291610Y-11053984D01*
X3291610Y-11053984D02*
X3272562Y-11053984D01*
X3272562Y-11053984D02*
X3253515Y-11044460D01*
X3253515Y-11044460D02*
X3243991Y-11034936D01*
X3243991Y-11034936D02*
X3234467Y-11015889D01*
X3234467Y-11015889D02*
X3224943Y-10977793D01*
X3224943Y-10977793D02*
X3224943Y-10930174D01*
X3224943Y-10930174D02*
X3234467Y-10892079D01*
X3234467Y-10892079D02*
X3243991Y-10873031D01*
X3243991Y-10873031D02*
X3253515Y-10863508D01*
X3253515Y-10863508D02*
X3272562Y-10853984D01*
X3463039Y-10853984D02*
X3482086Y-10853984D01*
X3482086Y-10853984D02*
X3501134Y-10863508D01*
X3501134Y-10863508D02*
X3510658Y-10873031D01*
X3510658Y-10873031D02*
X3520182Y-10892079D01*
X3520182Y-10892079D02*
X3529705Y-10930174D01*
X3529705Y-10930174D02*
X3529705Y-10977793D01*
X3529705Y-10977793D02*
X3520182Y-11015889D01*
X3520182Y-11015889D02*
X3510658Y-11034936D01*
X3510658Y-11034936D02*
X3501134Y-11044460D01*
X3501134Y-11044460D02*
X3482086Y-11053984D01*
X3482086Y-11053984D02*
X3463039Y-11053984D01*
X3463039Y-11053984D02*
X3443991Y-11044460D01*
X3443991Y-11044460D02*
X3434467Y-11034936D01*
X3434467Y-11034936D02*
X3424943Y-11015889D01*
X3424943Y-11015889D02*
X3415420Y-10977793D01*
X3415420Y-10977793D02*
X3415420Y-10930174D01*
X3415420Y-10930174D02*
X3424943Y-10892079D01*
X3424943Y-10892079D02*
X3434467Y-10873031D01*
X3434467Y-10873031D02*
X3443991Y-10863508D01*
X3443991Y-10863508D02*
X3463039Y-10853984D01*
X3615420Y-11053984D02*
X3615420Y-10920650D01*
X3615420Y-10939698D02*
X3624943Y-10930174D01*
X3624943Y-10930174D02*
X3643991Y-10920650D01*
X3643991Y-10920650D02*
X3672563Y-10920650D01*
X3672563Y-10920650D02*
X3691610Y-10930174D01*
X3691610Y-10930174D02*
X3701134Y-10949222D01*
X3701134Y-10949222D02*
X3701134Y-11053984D01*
X3701134Y-10949222D02*
X3710658Y-10930174D01*
X3710658Y-10930174D02*
X3729705Y-10920650D01*
X3729705Y-10920650D02*
X3758277Y-10920650D01*
X3758277Y-10920650D02*
X3777324Y-10930174D01*
X3777324Y-10930174D02*
X3786848Y-10949222D01*
X3786848Y-10949222D02*
X3786848Y-11053984D01*
X3882086Y-11053984D02*
X3882086Y-10920650D01*
X3882086Y-10939698D02*
X3891610Y-10930174D01*
X3891610Y-10930174D02*
X3910658Y-10920650D01*
X3910658Y-10920650D02*
X3939229Y-10920650D01*
X3939229Y-10920650D02*
X3958277Y-10930174D01*
X3958277Y-10930174D02*
X3967801Y-10949222D01*
X3967801Y-10949222D02*
X3967801Y-11053984D01*
X3967801Y-10949222D02*
X3977324Y-10930174D01*
X3977324Y-10930174D02*
X3996372Y-10920650D01*
X3996372Y-10920650D02*
X4024943Y-10920650D01*
X4024943Y-10920650D02*
X4043991Y-10930174D01*
X4043991Y-10930174D02*
X4053515Y-10949222D01*
X4053515Y-10949222D02*
X4053515Y-11053984D01*
X4443991Y-10844460D02*
X4272563Y-11101603D01*
X4701134Y-10853984D02*
X4720182Y-10853984D01*
X4720182Y-10853984D02*
X4739229Y-10863508D01*
X4739229Y-10863508D02*
X4748753Y-10873031D01*
X4748753Y-10873031D02*
X4758277Y-10892079D01*
X4758277Y-10892079D02*
X4767801Y-10930174D01*
X4767801Y-10930174D02*
X4767801Y-10977793D01*
X4767801Y-10977793D02*
X4758277Y-11015889D01*
X4758277Y-11015889D02*
X4748753Y-11034936D01*
X4748753Y-11034936D02*
X4739229Y-11044460D01*
X4739229Y-11044460D02*
X4720182Y-11053984D01*
X4720182Y-11053984D02*
X4701134Y-11053984D01*
X4701134Y-11053984D02*
X4682087Y-11044460D01*
X4682087Y-11044460D02*
X4672563Y-11034936D01*
X4672563Y-11034936D02*
X4663039Y-11015889D01*
X4663039Y-11015889D02*
X4653515Y-10977793D01*
X4653515Y-10977793D02*
X4653515Y-10930174D01*
X4653515Y-10930174D02*
X4663039Y-10892079D01*
X4663039Y-10892079D02*
X4672563Y-10873031D01*
X4672563Y-10873031D02*
X4682087Y-10863508D01*
X4682087Y-10863508D02*
X4701134Y-10853984D01*
X4853515Y-11034936D02*
X4863039Y-11044460D01*
X4863039Y-11044460D02*
X4853515Y-11053984D01*
X4853515Y-11053984D02*
X4843991Y-11044460D01*
X4843991Y-11044460D02*
X4853515Y-11034936D01*
X4853515Y-11034936D02*
X4853515Y-11053984D01*
X4986848Y-10853984D02*
X5005896Y-10853984D01*
X5005896Y-10853984D02*
X5024944Y-10863508D01*
X5024944Y-10863508D02*
X5034468Y-10873031D01*
X5034468Y-10873031D02*
X5043991Y-10892079D01*
X5043991Y-10892079D02*
X5053515Y-10930174D01*
X5053515Y-10930174D02*
X5053515Y-10977793D01*
X5053515Y-10977793D02*
X5043991Y-11015889D01*
X5043991Y-11015889D02*
X5034468Y-11034936D01*
X5034468Y-11034936D02*
X5024944Y-11044460D01*
X5024944Y-11044460D02*
X5005896Y-11053984D01*
X5005896Y-11053984D02*
X4986848Y-11053984D01*
X4986848Y-11053984D02*
X4967801Y-11044460D01*
X4967801Y-11044460D02*
X4958277Y-11034936D01*
X4958277Y-11034936D02*
X4948753Y-11015889D01*
X4948753Y-11015889D02*
X4939229Y-10977793D01*
X4939229Y-10977793D02*
X4939229Y-10930174D01*
X4939229Y-10930174D02*
X4948753Y-10892079D01*
X4948753Y-10892079D02*
X4958277Y-10873031D01*
X4958277Y-10873031D02*
X4967801Y-10863508D01*
X4967801Y-10863508D02*
X4986848Y-10853984D01*
X5224944Y-10920650D02*
X5224944Y-11053984D01*
X5177325Y-10844460D02*
X5129706Y-10987317D01*
X5129706Y-10987317D02*
X5253515Y-10987317D01*
X5310658Y-10853984D02*
X5443991Y-10853984D01*
X5443991Y-10853984D02*
X5358277Y-11053984D01*
X5510658Y-10873031D02*
X5520182Y-10863508D01*
X5520182Y-10863508D02*
X5539229Y-10853984D01*
X5539229Y-10853984D02*
X5586849Y-10853984D01*
X5586849Y-10853984D02*
X5605896Y-10863508D01*
X5605896Y-10863508D02*
X5615420Y-10873031D01*
X5615420Y-10873031D02*
X5624944Y-10892079D01*
X5624944Y-10892079D02*
X5624944Y-10911127D01*
X5624944Y-10911127D02*
X5615420Y-10939698D01*
X5615420Y-10939698D02*
X5501134Y-11053984D01*
X5501134Y-11053984D02*
X5624944Y-11053984D01*
X5701134Y-10853984D02*
X5701134Y-10892079D01*
X5777325Y-10853984D02*
X5777325Y-10892079D01*
X6072563Y-11130174D02*
X6063039Y-11120650D01*
X6063039Y-11120650D02*
X6043991Y-11092079D01*
X6043991Y-11092079D02*
X6034468Y-11073031D01*
X6034468Y-11073031D02*
X6024944Y-11044460D01*
X6024944Y-11044460D02*
X6015420Y-10996841D01*
X6015420Y-10996841D02*
X6015420Y-10958746D01*
X6015420Y-10958746D02*
X6024944Y-10911127D01*
X6024944Y-10911127D02*
X6034468Y-10882555D01*
X6034468Y-10882555D02*
X6043991Y-10863508D01*
X6043991Y-10863508D02*
X6063039Y-10834936D01*
X6063039Y-10834936D02*
X6072563Y-10825412D01*
X6139229Y-10873031D02*
X6148753Y-10863508D01*
X6148753Y-10863508D02*
X6167801Y-10853984D01*
X6167801Y-10853984D02*
X6215420Y-10853984D01*
X6215420Y-10853984D02*
X6234468Y-10863508D01*
X6234468Y-10863508D02*
X6243991Y-10873031D01*
X6243991Y-10873031D02*
X6253515Y-10892079D01*
X6253515Y-10892079D02*
X6253515Y-10911127D01*
X6253515Y-10911127D02*
X6243991Y-10939698D01*
X6243991Y-10939698D02*
X6129706Y-11053984D01*
X6129706Y-11053984D02*
X6253515Y-11053984D01*
X6491610Y-11053984D02*
X6491610Y-10853984D01*
X6577325Y-11053984D02*
X6577325Y-10949222D01*
X6577325Y-10949222D02*
X6567801Y-10930174D01*
X6567801Y-10930174D02*
X6548753Y-10920650D01*
X6548753Y-10920650D02*
X6520182Y-10920650D01*
X6520182Y-10920650D02*
X6501134Y-10930174D01*
X6501134Y-10930174D02*
X6491610Y-10939698D01*
X6701134Y-11053984D02*
X6682087Y-11044460D01*
X6682087Y-11044460D02*
X6672563Y-11034936D01*
X6672563Y-11034936D02*
X6663039Y-11015889D01*
X6663039Y-11015889D02*
X6663039Y-10958746D01*
X6663039Y-10958746D02*
X6672563Y-10939698D01*
X6672563Y-10939698D02*
X6682087Y-10930174D01*
X6682087Y-10930174D02*
X6701134Y-10920650D01*
X6701134Y-10920650D02*
X6729706Y-10920650D01*
X6729706Y-10920650D02*
X6748753Y-10930174D01*
X6748753Y-10930174D02*
X6758277Y-10939698D01*
X6758277Y-10939698D02*
X6767801Y-10958746D01*
X6767801Y-10958746D02*
X6767801Y-11015889D01*
X6767801Y-11015889D02*
X6758277Y-11034936D01*
X6758277Y-11034936D02*
X6748753Y-11044460D01*
X6748753Y-11044460D02*
X6729706Y-11053984D01*
X6729706Y-11053984D02*
X6701134Y-11053984D01*
X6882087Y-11053984D02*
X6863039Y-11044460D01*
X6863039Y-11044460D02*
X6853515Y-11025412D01*
X6853515Y-11025412D02*
X6853515Y-10853984D01*
X7034468Y-11044460D02*
X7015420Y-11053984D01*
X7015420Y-11053984D02*
X6977325Y-11053984D01*
X6977325Y-11053984D02*
X6958277Y-11044460D01*
X6958277Y-11044460D02*
X6948753Y-11025412D01*
X6948753Y-11025412D02*
X6948753Y-10949222D01*
X6948753Y-10949222D02*
X6958277Y-10930174D01*
X6958277Y-10930174D02*
X6977325Y-10920650D01*
X6977325Y-10920650D02*
X7015420Y-10920650D01*
X7015420Y-10920650D02*
X7034468Y-10930174D01*
X7034468Y-10930174D02*
X7043991Y-10949222D01*
X7043991Y-10949222D02*
X7043991Y-10968270D01*
X7043991Y-10968270D02*
X6948753Y-10987317D01*
X7120182Y-11044460D02*
X7139230Y-11053984D01*
X7139230Y-11053984D02*
X7177325Y-11053984D01*
X7177325Y-11053984D02*
X7196372Y-11044460D01*
X7196372Y-11044460D02*
X7205896Y-11025412D01*
X7205896Y-11025412D02*
X7205896Y-11015889D01*
X7205896Y-11015889D02*
X7196372Y-10996841D01*
X7196372Y-10996841D02*
X7177325Y-10987317D01*
X7177325Y-10987317D02*
X7148753Y-10987317D01*
X7148753Y-10987317D02*
X7129706Y-10977793D01*
X7129706Y-10977793D02*
X7120182Y-10958746D01*
X7120182Y-10958746D02*
X7120182Y-10949222D01*
X7120182Y-10949222D02*
X7129706Y-10930174D01*
X7129706Y-10930174D02*
X7148753Y-10920650D01*
X7148753Y-10920650D02*
X7177325Y-10920650D01*
X7177325Y-10920650D02*
X7196372Y-10930174D01*
X7272563Y-11130174D02*
X7282087Y-11120650D01*
X7282087Y-11120650D02*
X7301134Y-11092079D01*
X7301134Y-11092079D02*
X7310658Y-11073031D01*
X7310658Y-11073031D02*
X7320182Y-11044460D01*
X7320182Y-11044460D02*
X7329706Y-10996841D01*
X7329706Y-10996841D02*
X7329706Y-10958746D01*
X7329706Y-10958746D02*
X7320182Y-10911127D01*
X7320182Y-10911127D02*
X7310658Y-10882555D01*
X7310658Y-10882555D02*
X7301134Y-10863508D01*
X7301134Y-10863508D02*
X7282087Y-10834936D01*
X7282087Y-10834936D02*
X7272563Y-10825412D01*
D15*
X2367500Y-11161500D02*
X2497500Y-11291500D01*
X2497500Y-11161500D02*
X2367500Y-11291500D01*
X2432500Y-11161500D02*
X2432500Y-11291500D01*
X2367500Y-11226500D02*
X2497500Y-11226500D01*
D11*
X2863039Y-11317984D02*
X2748753Y-11317984D01*
X2805896Y-11317984D02*
X2805896Y-11117984D01*
X2805896Y-11117984D02*
X2786848Y-11146555D01*
X2786848Y-11146555D02*
X2767801Y-11165603D01*
X2767801Y-11165603D02*
X2748753Y-11175127D01*
X2948753Y-11298936D02*
X2958277Y-11308460D01*
X2958277Y-11308460D02*
X2948753Y-11317984D01*
X2948753Y-11317984D02*
X2939229Y-11308460D01*
X2939229Y-11308460D02*
X2948753Y-11298936D01*
X2948753Y-11298936D02*
X2948753Y-11317984D01*
X3024943Y-11117984D02*
X3148753Y-11117984D01*
X3148753Y-11117984D02*
X3082086Y-11194174D01*
X3082086Y-11194174D02*
X3110658Y-11194174D01*
X3110658Y-11194174D02*
X3129705Y-11203698D01*
X3129705Y-11203698D02*
X3139229Y-11213222D01*
X3139229Y-11213222D02*
X3148753Y-11232269D01*
X3148753Y-11232269D02*
X3148753Y-11279888D01*
X3148753Y-11279888D02*
X3139229Y-11298936D01*
X3139229Y-11298936D02*
X3129705Y-11308460D01*
X3129705Y-11308460D02*
X3110658Y-11317984D01*
X3110658Y-11317984D02*
X3053515Y-11317984D01*
X3053515Y-11317984D02*
X3034467Y-11308460D01*
X3034467Y-11308460D02*
X3024943Y-11298936D01*
X3272562Y-11117984D02*
X3291610Y-11117984D01*
X3291610Y-11117984D02*
X3310658Y-11127508D01*
X3310658Y-11127508D02*
X3320182Y-11137031D01*
X3320182Y-11137031D02*
X3329705Y-11156079D01*
X3329705Y-11156079D02*
X3339229Y-11194174D01*
X3339229Y-11194174D02*
X3339229Y-11241793D01*
X3339229Y-11241793D02*
X3329705Y-11279888D01*
X3329705Y-11279888D02*
X3320182Y-11298936D01*
X3320182Y-11298936D02*
X3310658Y-11308460D01*
X3310658Y-11308460D02*
X3291610Y-11317984D01*
X3291610Y-11317984D02*
X3272562Y-11317984D01*
X3272562Y-11317984D02*
X3253515Y-11308460D01*
X3253515Y-11308460D02*
X3243991Y-11298936D01*
X3243991Y-11298936D02*
X3234467Y-11279888D01*
X3234467Y-11279888D02*
X3224943Y-11241793D01*
X3224943Y-11241793D02*
X3224943Y-11194174D01*
X3224943Y-11194174D02*
X3234467Y-11156079D01*
X3234467Y-11156079D02*
X3243991Y-11137031D01*
X3243991Y-11137031D02*
X3253515Y-11127508D01*
X3253515Y-11127508D02*
X3272562Y-11117984D01*
X3463039Y-11117984D02*
X3482086Y-11117984D01*
X3482086Y-11117984D02*
X3501134Y-11127508D01*
X3501134Y-11127508D02*
X3510658Y-11137031D01*
X3510658Y-11137031D02*
X3520182Y-11156079D01*
X3520182Y-11156079D02*
X3529705Y-11194174D01*
X3529705Y-11194174D02*
X3529705Y-11241793D01*
X3529705Y-11241793D02*
X3520182Y-11279888D01*
X3520182Y-11279888D02*
X3510658Y-11298936D01*
X3510658Y-11298936D02*
X3501134Y-11308460D01*
X3501134Y-11308460D02*
X3482086Y-11317984D01*
X3482086Y-11317984D02*
X3463039Y-11317984D01*
X3463039Y-11317984D02*
X3443991Y-11308460D01*
X3443991Y-11308460D02*
X3434467Y-11298936D01*
X3434467Y-11298936D02*
X3424943Y-11279888D01*
X3424943Y-11279888D02*
X3415420Y-11241793D01*
X3415420Y-11241793D02*
X3415420Y-11194174D01*
X3415420Y-11194174D02*
X3424943Y-11156079D01*
X3424943Y-11156079D02*
X3434467Y-11137031D01*
X3434467Y-11137031D02*
X3443991Y-11127508D01*
X3443991Y-11127508D02*
X3463039Y-11117984D01*
X3615420Y-11317984D02*
X3615420Y-11184650D01*
X3615420Y-11203698D02*
X3624943Y-11194174D01*
X3624943Y-11194174D02*
X3643991Y-11184650D01*
X3643991Y-11184650D02*
X3672563Y-11184650D01*
X3672563Y-11184650D02*
X3691610Y-11194174D01*
X3691610Y-11194174D02*
X3701134Y-11213222D01*
X3701134Y-11213222D02*
X3701134Y-11317984D01*
X3701134Y-11213222D02*
X3710658Y-11194174D01*
X3710658Y-11194174D02*
X3729705Y-11184650D01*
X3729705Y-11184650D02*
X3758277Y-11184650D01*
X3758277Y-11184650D02*
X3777324Y-11194174D01*
X3777324Y-11194174D02*
X3786848Y-11213222D01*
X3786848Y-11213222D02*
X3786848Y-11317984D01*
X3882086Y-11317984D02*
X3882086Y-11184650D01*
X3882086Y-11203698D02*
X3891610Y-11194174D01*
X3891610Y-11194174D02*
X3910658Y-11184650D01*
X3910658Y-11184650D02*
X3939229Y-11184650D01*
X3939229Y-11184650D02*
X3958277Y-11194174D01*
X3958277Y-11194174D02*
X3967801Y-11213222D01*
X3967801Y-11213222D02*
X3967801Y-11317984D01*
X3967801Y-11213222D02*
X3977324Y-11194174D01*
X3977324Y-11194174D02*
X3996372Y-11184650D01*
X3996372Y-11184650D02*
X4024943Y-11184650D01*
X4024943Y-11184650D02*
X4043991Y-11194174D01*
X4043991Y-11194174D02*
X4053515Y-11213222D01*
X4053515Y-11213222D02*
X4053515Y-11317984D01*
X4443991Y-11108460D02*
X4272563Y-11365603D01*
X4701134Y-11117984D02*
X4720182Y-11117984D01*
X4720182Y-11117984D02*
X4739229Y-11127508D01*
X4739229Y-11127508D02*
X4748753Y-11137031D01*
X4748753Y-11137031D02*
X4758277Y-11156079D01*
X4758277Y-11156079D02*
X4767801Y-11194174D01*
X4767801Y-11194174D02*
X4767801Y-11241793D01*
X4767801Y-11241793D02*
X4758277Y-11279888D01*
X4758277Y-11279888D02*
X4748753Y-11298936D01*
X4748753Y-11298936D02*
X4739229Y-11308460D01*
X4739229Y-11308460D02*
X4720182Y-11317984D01*
X4720182Y-11317984D02*
X4701134Y-11317984D01*
X4701134Y-11317984D02*
X4682087Y-11308460D01*
X4682087Y-11308460D02*
X4672563Y-11298936D01*
X4672563Y-11298936D02*
X4663039Y-11279888D01*
X4663039Y-11279888D02*
X4653515Y-11241793D01*
X4653515Y-11241793D02*
X4653515Y-11194174D01*
X4653515Y-11194174D02*
X4663039Y-11156079D01*
X4663039Y-11156079D02*
X4672563Y-11137031D01*
X4672563Y-11137031D02*
X4682087Y-11127508D01*
X4682087Y-11127508D02*
X4701134Y-11117984D01*
X4853515Y-11298936D02*
X4863039Y-11308460D01*
X4863039Y-11308460D02*
X4853515Y-11317984D01*
X4853515Y-11317984D02*
X4843991Y-11308460D01*
X4843991Y-11308460D02*
X4853515Y-11298936D01*
X4853515Y-11298936D02*
X4853515Y-11317984D01*
X4986848Y-11117984D02*
X5005896Y-11117984D01*
X5005896Y-11117984D02*
X5024944Y-11127508D01*
X5024944Y-11127508D02*
X5034468Y-11137031D01*
X5034468Y-11137031D02*
X5043991Y-11156079D01*
X5043991Y-11156079D02*
X5053515Y-11194174D01*
X5053515Y-11194174D02*
X5053515Y-11241793D01*
X5053515Y-11241793D02*
X5043991Y-11279888D01*
X5043991Y-11279888D02*
X5034468Y-11298936D01*
X5034468Y-11298936D02*
X5024944Y-11308460D01*
X5024944Y-11308460D02*
X5005896Y-11317984D01*
X5005896Y-11317984D02*
X4986848Y-11317984D01*
X4986848Y-11317984D02*
X4967801Y-11308460D01*
X4967801Y-11308460D02*
X4958277Y-11298936D01*
X4958277Y-11298936D02*
X4948753Y-11279888D01*
X4948753Y-11279888D02*
X4939229Y-11241793D01*
X4939229Y-11241793D02*
X4939229Y-11194174D01*
X4939229Y-11194174D02*
X4948753Y-11156079D01*
X4948753Y-11156079D02*
X4958277Y-11137031D01*
X4958277Y-11137031D02*
X4967801Y-11127508D01*
X4967801Y-11127508D02*
X4986848Y-11117984D01*
X5234468Y-11117984D02*
X5139229Y-11117984D01*
X5139229Y-11117984D02*
X5129706Y-11213222D01*
X5129706Y-11213222D02*
X5139229Y-11203698D01*
X5139229Y-11203698D02*
X5158277Y-11194174D01*
X5158277Y-11194174D02*
X5205896Y-11194174D01*
X5205896Y-11194174D02*
X5224944Y-11203698D01*
X5224944Y-11203698D02*
X5234468Y-11213222D01*
X5234468Y-11213222D02*
X5243991Y-11232269D01*
X5243991Y-11232269D02*
X5243991Y-11279888D01*
X5243991Y-11279888D02*
X5234468Y-11298936D01*
X5234468Y-11298936D02*
X5224944Y-11308460D01*
X5224944Y-11308460D02*
X5205896Y-11317984D01*
X5205896Y-11317984D02*
X5158277Y-11317984D01*
X5158277Y-11317984D02*
X5139229Y-11308460D01*
X5139229Y-11308460D02*
X5129706Y-11298936D01*
X5434468Y-11317984D02*
X5320182Y-11317984D01*
X5377325Y-11317984D02*
X5377325Y-11117984D01*
X5377325Y-11117984D02*
X5358277Y-11146555D01*
X5358277Y-11146555D02*
X5339229Y-11165603D01*
X5339229Y-11165603D02*
X5320182Y-11175127D01*
X5510658Y-11137031D02*
X5520182Y-11127508D01*
X5520182Y-11127508D02*
X5539229Y-11117984D01*
X5539229Y-11117984D02*
X5586849Y-11117984D01*
X5586849Y-11117984D02*
X5605896Y-11127508D01*
X5605896Y-11127508D02*
X5615420Y-11137031D01*
X5615420Y-11137031D02*
X5624944Y-11156079D01*
X5624944Y-11156079D02*
X5624944Y-11175127D01*
X5624944Y-11175127D02*
X5615420Y-11203698D01*
X5615420Y-11203698D02*
X5501134Y-11317984D01*
X5501134Y-11317984D02*
X5624944Y-11317984D01*
X5701134Y-11117984D02*
X5701134Y-11156079D01*
X5777325Y-11117984D02*
X5777325Y-11156079D01*
X6072563Y-11394174D02*
X6063039Y-11384650D01*
X6063039Y-11384650D02*
X6043991Y-11356079D01*
X6043991Y-11356079D02*
X6034468Y-11337031D01*
X6034468Y-11337031D02*
X6024944Y-11308460D01*
X6024944Y-11308460D02*
X6015420Y-11260841D01*
X6015420Y-11260841D02*
X6015420Y-11222746D01*
X6015420Y-11222746D02*
X6024944Y-11175127D01*
X6024944Y-11175127D02*
X6034468Y-11146555D01*
X6034468Y-11146555D02*
X6043991Y-11127508D01*
X6043991Y-11127508D02*
X6063039Y-11098936D01*
X6063039Y-11098936D02*
X6072563Y-11089412D01*
X6129706Y-11117984D02*
X6253515Y-11117984D01*
X6253515Y-11117984D02*
X6186848Y-11194174D01*
X6186848Y-11194174D02*
X6215420Y-11194174D01*
X6215420Y-11194174D02*
X6234468Y-11203698D01*
X6234468Y-11203698D02*
X6243991Y-11213222D01*
X6243991Y-11213222D02*
X6253515Y-11232269D01*
X6253515Y-11232269D02*
X6253515Y-11279888D01*
X6253515Y-11279888D02*
X6243991Y-11298936D01*
X6243991Y-11298936D02*
X6234468Y-11308460D01*
X6234468Y-11308460D02*
X6215420Y-11317984D01*
X6215420Y-11317984D02*
X6158277Y-11317984D01*
X6158277Y-11317984D02*
X6139229Y-11308460D01*
X6139229Y-11308460D02*
X6129706Y-11298936D01*
X6491610Y-11317984D02*
X6491610Y-11117984D01*
X6577325Y-11317984D02*
X6577325Y-11213222D01*
X6577325Y-11213222D02*
X6567801Y-11194174D01*
X6567801Y-11194174D02*
X6548753Y-11184650D01*
X6548753Y-11184650D02*
X6520182Y-11184650D01*
X6520182Y-11184650D02*
X6501134Y-11194174D01*
X6501134Y-11194174D02*
X6491610Y-11203698D01*
X6701134Y-11317984D02*
X6682087Y-11308460D01*
X6682087Y-11308460D02*
X6672563Y-11298936D01*
X6672563Y-11298936D02*
X6663039Y-11279888D01*
X6663039Y-11279888D02*
X6663039Y-11222746D01*
X6663039Y-11222746D02*
X6672563Y-11203698D01*
X6672563Y-11203698D02*
X6682087Y-11194174D01*
X6682087Y-11194174D02*
X6701134Y-11184650D01*
X6701134Y-11184650D02*
X6729706Y-11184650D01*
X6729706Y-11184650D02*
X6748753Y-11194174D01*
X6748753Y-11194174D02*
X6758277Y-11203698D01*
X6758277Y-11203698D02*
X6767801Y-11222746D01*
X6767801Y-11222746D02*
X6767801Y-11279888D01*
X6767801Y-11279888D02*
X6758277Y-11298936D01*
X6758277Y-11298936D02*
X6748753Y-11308460D01*
X6748753Y-11308460D02*
X6729706Y-11317984D01*
X6729706Y-11317984D02*
X6701134Y-11317984D01*
X6882087Y-11317984D02*
X6863039Y-11308460D01*
X6863039Y-11308460D02*
X6853515Y-11289412D01*
X6853515Y-11289412D02*
X6853515Y-11117984D01*
X7034468Y-11308460D02*
X7015420Y-11317984D01*
X7015420Y-11317984D02*
X6977325Y-11317984D01*
X6977325Y-11317984D02*
X6958277Y-11308460D01*
X6958277Y-11308460D02*
X6948753Y-11289412D01*
X6948753Y-11289412D02*
X6948753Y-11213222D01*
X6948753Y-11213222D02*
X6958277Y-11194174D01*
X6958277Y-11194174D02*
X6977325Y-11184650D01*
X6977325Y-11184650D02*
X7015420Y-11184650D01*
X7015420Y-11184650D02*
X7034468Y-11194174D01*
X7034468Y-11194174D02*
X7043991Y-11213222D01*
X7043991Y-11213222D02*
X7043991Y-11232269D01*
X7043991Y-11232269D02*
X6948753Y-11251317D01*
X7120182Y-11308460D02*
X7139230Y-11317984D01*
X7139230Y-11317984D02*
X7177325Y-11317984D01*
X7177325Y-11317984D02*
X7196372Y-11308460D01*
X7196372Y-11308460D02*
X7205896Y-11289412D01*
X7205896Y-11289412D02*
X7205896Y-11279888D01*
X7205896Y-11279888D02*
X7196372Y-11260841D01*
X7196372Y-11260841D02*
X7177325Y-11251317D01*
X7177325Y-11251317D02*
X7148753Y-11251317D01*
X7148753Y-11251317D02*
X7129706Y-11241793D01*
X7129706Y-11241793D02*
X7120182Y-11222746D01*
X7120182Y-11222746D02*
X7120182Y-11213222D01*
X7120182Y-11213222D02*
X7129706Y-11194174D01*
X7129706Y-11194174D02*
X7148753Y-11184650D01*
X7148753Y-11184650D02*
X7177325Y-11184650D01*
X7177325Y-11184650D02*
X7196372Y-11194174D01*
X7272563Y-11394174D02*
X7282087Y-11384650D01*
X7282087Y-11384650D02*
X7301134Y-11356079D01*
X7301134Y-11356079D02*
X7310658Y-11337031D01*
X7310658Y-11337031D02*
X7320182Y-11308460D01*
X7320182Y-11308460D02*
X7329706Y-11260841D01*
X7329706Y-11260841D02*
X7329706Y-11222746D01*
X7329706Y-11222746D02*
X7320182Y-11175127D01*
X7320182Y-11175127D02*
X7310658Y-11146555D01*
X7310658Y-11146555D02*
X7301134Y-11127508D01*
X7301134Y-11127508D02*
X7282087Y-11098936D01*
X7282087Y-11098936D02*
X7272563Y-11089412D01*
M02*
