%TF.GenerationSoftware,KiCad,Pcbnew,9.0.7*%
%TF.CreationDate,2026-03-18T14:58:16+05:30*%
%TF.ProjectId,LDR,4c44522e-6b69-4636-9164-5f7063625858,rev?*%
%TF.SameCoordinates,Original*%
%TF.FileFunction,Legend,Top*%
%TF.FilePolarity,Positive*%
%FSLAX46Y46*%
G04 Gerber Fmt 4.6, Leading zero omitted, Abs format (unit mm)*
G04 Created by KiCad (PCBNEW 9.0.7) date 2026-03-18 14:58:16*
%MOMM*%
%LPD*%
G01*
G04 APERTURE LIST*
%ADD10C,0.150000*%
%ADD11C,0.120000*%
G04 APERTURE END LIST*
D10*
X76411905Y-86104819D02*
X76411905Y-85104819D01*
X76983333Y-86104819D02*
X76554762Y-85533390D01*
X76983333Y-85104819D02*
X76411905Y-85676247D01*
X77935714Y-86104819D02*
X77364286Y-86104819D01*
X77650000Y-86104819D02*
X77650000Y-85104819D01*
X77650000Y-85104819D02*
X77554762Y-85247676D01*
X77554762Y-85247676D02*
X77459524Y-85342914D01*
X77459524Y-85342914D02*
X77364286Y-85390533D01*
X77366666Y-64454819D02*
X77366666Y-65169104D01*
X77366666Y-65169104D02*
X77319047Y-65311961D01*
X77319047Y-65311961D02*
X77223809Y-65407200D01*
X77223809Y-65407200D02*
X77080952Y-65454819D01*
X77080952Y-65454819D02*
X76985714Y-65454819D01*
X78366666Y-65454819D02*
X77795238Y-65454819D01*
X78080952Y-65454819D02*
X78080952Y-64454819D01*
X78080952Y-64454819D02*
X77985714Y-64597676D01*
X77985714Y-64597676D02*
X77890476Y-64692914D01*
X77890476Y-64692914D02*
X77795238Y-64740533D01*
X43261905Y-35034819D02*
X43261905Y-34034819D01*
X43261905Y-34034819D02*
X43500000Y-34034819D01*
X43500000Y-34034819D02*
X43642857Y-34082438D01*
X43642857Y-34082438D02*
X43738095Y-34177676D01*
X43738095Y-34177676D02*
X43785714Y-34272914D01*
X43785714Y-34272914D02*
X43833333Y-34463390D01*
X43833333Y-34463390D02*
X43833333Y-34606247D01*
X43833333Y-34606247D02*
X43785714Y-34796723D01*
X43785714Y-34796723D02*
X43738095Y-34891961D01*
X43738095Y-34891961D02*
X43642857Y-34987200D01*
X43642857Y-34987200D02*
X43500000Y-35034819D01*
X43500000Y-35034819D02*
X43261905Y-35034819D01*
X44785714Y-35034819D02*
X44214286Y-35034819D01*
X44500000Y-35034819D02*
X44500000Y-34034819D01*
X44500000Y-34034819D02*
X44404762Y-34177676D01*
X44404762Y-34177676D02*
X44309524Y-34272914D01*
X44309524Y-34272914D02*
X44214286Y-34320533D01*
X38658095Y-35754819D02*
X38658095Y-34754819D01*
X39229523Y-35754819D02*
X38800952Y-35183390D01*
X39229523Y-34754819D02*
X38658095Y-35326247D01*
X93334819Y-76603333D02*
X94049104Y-76603333D01*
X94049104Y-76603333D02*
X94191961Y-76650952D01*
X94191961Y-76650952D02*
X94287200Y-76746190D01*
X94287200Y-76746190D02*
X94334819Y-76889047D01*
X94334819Y-76889047D02*
X94334819Y-76984285D01*
X93334819Y-76222380D02*
X93334819Y-75603333D01*
X93334819Y-75603333D02*
X93715771Y-75936666D01*
X93715771Y-75936666D02*
X93715771Y-75793809D01*
X93715771Y-75793809D02*
X93763390Y-75698571D01*
X93763390Y-75698571D02*
X93811009Y-75650952D01*
X93811009Y-75650952D02*
X93906247Y-75603333D01*
X93906247Y-75603333D02*
X94144342Y-75603333D01*
X94144342Y-75603333D02*
X94239580Y-75650952D01*
X94239580Y-75650952D02*
X94287200Y-75698571D01*
X94287200Y-75698571D02*
X94334819Y-75793809D01*
X94334819Y-75793809D02*
X94334819Y-76079523D01*
X94334819Y-76079523D02*
X94287200Y-76174761D01*
X94287200Y-76174761D02*
X94239580Y-76222380D01*
X34074819Y-69063333D02*
X34789104Y-69063333D01*
X34789104Y-69063333D02*
X34931961Y-69110952D01*
X34931961Y-69110952D02*
X35027200Y-69206190D01*
X35027200Y-69206190D02*
X35074819Y-69349047D01*
X35074819Y-69349047D02*
X35074819Y-69444285D01*
X34170057Y-68634761D02*
X34122438Y-68587142D01*
X34122438Y-68587142D02*
X34074819Y-68491904D01*
X34074819Y-68491904D02*
X34074819Y-68253809D01*
X34074819Y-68253809D02*
X34122438Y-68158571D01*
X34122438Y-68158571D02*
X34170057Y-68110952D01*
X34170057Y-68110952D02*
X34265295Y-68063333D01*
X34265295Y-68063333D02*
X34360533Y-68063333D01*
X34360533Y-68063333D02*
X34503390Y-68110952D01*
X34503390Y-68110952D02*
X35074819Y-68682380D01*
X35074819Y-68682380D02*
X35074819Y-68063333D01*
X57110057Y-72325238D02*
X57062438Y-72420476D01*
X57062438Y-72420476D02*
X56967200Y-72515714D01*
X56967200Y-72515714D02*
X56824342Y-72658571D01*
X56824342Y-72658571D02*
X56776723Y-72753809D01*
X56776723Y-72753809D02*
X56776723Y-72849047D01*
X57014819Y-72801428D02*
X56967200Y-72896666D01*
X56967200Y-72896666D02*
X56871961Y-72991904D01*
X56871961Y-72991904D02*
X56681485Y-73039523D01*
X56681485Y-73039523D02*
X56348152Y-73039523D01*
X56348152Y-73039523D02*
X56157676Y-72991904D01*
X56157676Y-72991904D02*
X56062438Y-72896666D01*
X56062438Y-72896666D02*
X56014819Y-72801428D01*
X56014819Y-72801428D02*
X56014819Y-72610952D01*
X56014819Y-72610952D02*
X56062438Y-72515714D01*
X56062438Y-72515714D02*
X56157676Y-72420476D01*
X56157676Y-72420476D02*
X56348152Y-72372857D01*
X56348152Y-72372857D02*
X56681485Y-72372857D01*
X56681485Y-72372857D02*
X56871961Y-72420476D01*
X56871961Y-72420476D02*
X56967200Y-72515714D01*
X56967200Y-72515714D02*
X57014819Y-72610952D01*
X57014819Y-72610952D02*
X57014819Y-72801428D01*
X57014819Y-71420476D02*
X57014819Y-71991904D01*
X57014819Y-71706190D02*
X56014819Y-71706190D01*
X56014819Y-71706190D02*
X56157676Y-71801428D01*
X56157676Y-71801428D02*
X56252914Y-71896666D01*
X56252914Y-71896666D02*
X56300533Y-71991904D01*
X43333333Y-44584819D02*
X43000000Y-44108628D01*
X42761905Y-44584819D02*
X42761905Y-43584819D01*
X42761905Y-43584819D02*
X43142857Y-43584819D01*
X43142857Y-43584819D02*
X43238095Y-43632438D01*
X43238095Y-43632438D02*
X43285714Y-43680057D01*
X43285714Y-43680057D02*
X43333333Y-43775295D01*
X43333333Y-43775295D02*
X43333333Y-43918152D01*
X43333333Y-43918152D02*
X43285714Y-44013390D01*
X43285714Y-44013390D02*
X43238095Y-44061009D01*
X43238095Y-44061009D02*
X43142857Y-44108628D01*
X43142857Y-44108628D02*
X42761905Y-44108628D01*
X43666667Y-43584819D02*
X44285714Y-43584819D01*
X44285714Y-43584819D02*
X43952381Y-43965771D01*
X43952381Y-43965771D02*
X44095238Y-43965771D01*
X44095238Y-43965771D02*
X44190476Y-44013390D01*
X44190476Y-44013390D02*
X44238095Y-44061009D01*
X44238095Y-44061009D02*
X44285714Y-44156247D01*
X44285714Y-44156247D02*
X44285714Y-44394342D01*
X44285714Y-44394342D02*
X44238095Y-44489580D01*
X44238095Y-44489580D02*
X44190476Y-44537200D01*
X44190476Y-44537200D02*
X44095238Y-44584819D01*
X44095238Y-44584819D02*
X43809524Y-44584819D01*
X43809524Y-44584819D02*
X43714286Y-44537200D01*
X43714286Y-44537200D02*
X43666667Y-44489580D01*
X62726905Y-59964819D02*
X62726905Y-58964819D01*
X62726905Y-58964819D02*
X62965000Y-58964819D01*
X62965000Y-58964819D02*
X63107857Y-59012438D01*
X63107857Y-59012438D02*
X63203095Y-59107676D01*
X63203095Y-59107676D02*
X63250714Y-59202914D01*
X63250714Y-59202914D02*
X63298333Y-59393390D01*
X63298333Y-59393390D02*
X63298333Y-59536247D01*
X63298333Y-59536247D02*
X63250714Y-59726723D01*
X63250714Y-59726723D02*
X63203095Y-59821961D01*
X63203095Y-59821961D02*
X63107857Y-59917200D01*
X63107857Y-59917200D02*
X62965000Y-59964819D01*
X62965000Y-59964819D02*
X62726905Y-59964819D01*
X63679286Y-59060057D02*
X63726905Y-59012438D01*
X63726905Y-59012438D02*
X63822143Y-58964819D01*
X63822143Y-58964819D02*
X64060238Y-58964819D01*
X64060238Y-58964819D02*
X64155476Y-59012438D01*
X64155476Y-59012438D02*
X64203095Y-59060057D01*
X64203095Y-59060057D02*
X64250714Y-59155295D01*
X64250714Y-59155295D02*
X64250714Y-59250533D01*
X64250714Y-59250533D02*
X64203095Y-59393390D01*
X64203095Y-59393390D02*
X63631667Y-59964819D01*
X63631667Y-59964819D02*
X64250714Y-59964819D01*
X45354819Y-80666666D02*
X44878628Y-80999999D01*
X45354819Y-81238094D02*
X44354819Y-81238094D01*
X44354819Y-81238094D02*
X44354819Y-80857142D01*
X44354819Y-80857142D02*
X44402438Y-80761904D01*
X44402438Y-80761904D02*
X44450057Y-80714285D01*
X44450057Y-80714285D02*
X44545295Y-80666666D01*
X44545295Y-80666666D02*
X44688152Y-80666666D01*
X44688152Y-80666666D02*
X44783390Y-80714285D01*
X44783390Y-80714285D02*
X44831009Y-80761904D01*
X44831009Y-80761904D02*
X44878628Y-80857142D01*
X44878628Y-80857142D02*
X44878628Y-81238094D01*
X45354819Y-79714285D02*
X45354819Y-80285713D01*
X45354819Y-79999999D02*
X44354819Y-79999999D01*
X44354819Y-79999999D02*
X44497676Y-80095237D01*
X44497676Y-80095237D02*
X44592914Y-80190475D01*
X44592914Y-80190475D02*
X44640533Y-80285713D01*
X43333333Y-55084819D02*
X43000000Y-54608628D01*
X42761905Y-55084819D02*
X42761905Y-54084819D01*
X42761905Y-54084819D02*
X43142857Y-54084819D01*
X43142857Y-54084819D02*
X43238095Y-54132438D01*
X43238095Y-54132438D02*
X43285714Y-54180057D01*
X43285714Y-54180057D02*
X43333333Y-54275295D01*
X43333333Y-54275295D02*
X43333333Y-54418152D01*
X43333333Y-54418152D02*
X43285714Y-54513390D01*
X43285714Y-54513390D02*
X43238095Y-54561009D01*
X43238095Y-54561009D02*
X43142857Y-54608628D01*
X43142857Y-54608628D02*
X42761905Y-54608628D01*
X43714286Y-54180057D02*
X43761905Y-54132438D01*
X43761905Y-54132438D02*
X43857143Y-54084819D01*
X43857143Y-54084819D02*
X44095238Y-54084819D01*
X44095238Y-54084819D02*
X44190476Y-54132438D01*
X44190476Y-54132438D02*
X44238095Y-54180057D01*
X44238095Y-54180057D02*
X44285714Y-54275295D01*
X44285714Y-54275295D02*
X44285714Y-54370533D01*
X44285714Y-54370533D02*
X44238095Y-54513390D01*
X44238095Y-54513390D02*
X43666667Y-55084819D01*
X43666667Y-55084819D02*
X44285714Y-55084819D01*
D11*
%TO.C,K1*%
X67650000Y-68650000D02*
X67650000Y-75250000D01*
X67650000Y-68650000D02*
X87450000Y-68650000D01*
X67650000Y-77650000D02*
X67650000Y-84250000D01*
X71700000Y-76500000D02*
X70900000Y-76500000D01*
X71700000Y-76500000D02*
X71700000Y-80100000D01*
X72600000Y-82500000D02*
X75100000Y-82500000D01*
X73100000Y-74700000D02*
X77100000Y-74700000D01*
X73100000Y-78300000D02*
X73100000Y-74700000D01*
X75100000Y-70500000D02*
X72600000Y-70500000D01*
X75100000Y-70500000D02*
X75100000Y-74700000D01*
X75100000Y-78300000D02*
X75100000Y-82500000D01*
X77100000Y-74700000D02*
X77100000Y-78300000D01*
X77100000Y-78300000D02*
X73100000Y-74700000D01*
X77100000Y-78300000D02*
X73100000Y-78300000D01*
X78500000Y-76500000D02*
X78500000Y-80100000D01*
X78500000Y-76500000D02*
X80000000Y-76500000D01*
X78500000Y-80100000D02*
X71700000Y-80100000D01*
X80000000Y-76500000D02*
X84600000Y-74000000D01*
X83200000Y-72250000D02*
X83200000Y-74750000D01*
X83200000Y-80650000D02*
X83200000Y-78200000D01*
X87450000Y-68650000D02*
X87450000Y-84250000D01*
X87450000Y-84250000D02*
X67650000Y-84250000D01*
%TO.C,J1*%
X78500000Y-62500000D02*
G75*
G02*
X75500000Y-62500000I-1500000J0D01*
G01*
X75500000Y-62500000D02*
G75*
G02*
X78500000Y-62500000I1500000J0D01*
G01*
%TO.C,D1*%
X40080000Y-35580000D02*
X47920000Y-35580000D01*
X40080000Y-36060000D02*
X40080000Y-35580000D01*
X40080000Y-38940000D02*
X40080000Y-39420000D01*
X40080000Y-39420000D02*
X47920000Y-39420000D01*
X41220000Y-35580000D02*
X41220000Y-39420000D01*
X41340000Y-35580000D02*
X41340000Y-39420000D01*
X41460000Y-35580000D02*
X41460000Y-39420000D01*
X47920000Y-35580000D02*
X47920000Y-36060000D01*
X47920000Y-39420000D02*
X47920000Y-38940000D01*
%TO.C,J3*%
X94970000Y-75800000D02*
X95570000Y-75800000D01*
X94970000Y-78340000D02*
X95570000Y-78340000D01*
X95570000Y-74200000D02*
X94970000Y-74200000D01*
X95570000Y-75800000D02*
X95570000Y-74200000D01*
X95570000Y-76740000D02*
X94970000Y-76740000D01*
X95570000Y-78340000D02*
X95570000Y-76740000D01*
X96000000Y-79210000D02*
X100000000Y-79210000D01*
X99460000Y-75250000D02*
X99990000Y-75000000D01*
X99460000Y-77290000D02*
X99460000Y-75250000D01*
X99990000Y-75000000D02*
X100990000Y-75000000D01*
X99990000Y-77540000D02*
X99460000Y-77290000D01*
X99990000Y-77540000D02*
X99990000Y-75000000D01*
X100990000Y-75250000D02*
X99990000Y-75250000D01*
X100990000Y-77290000D02*
X99990000Y-77290000D01*
X100990000Y-77540000D02*
X99990000Y-77540000D01*
X94970000Y-78920000D02*
X100990000Y-78920000D01*
X100990000Y-73620000D01*
X94970000Y-73620000D01*
X94970000Y-78920000D01*
%TO.C,J2*%
X27510000Y-67460000D02*
X28510000Y-67460000D01*
X27510000Y-67710000D02*
X28510000Y-67710000D01*
X27510000Y-69750000D02*
X28510000Y-69750000D01*
X28510000Y-67460000D02*
X28510000Y-70000000D01*
X28510000Y-67460000D02*
X29040000Y-67710000D01*
X28510000Y-70000000D02*
X27510000Y-70000000D01*
X29040000Y-67710000D02*
X29040000Y-69750000D01*
X29040000Y-69750000D02*
X28510000Y-70000000D01*
X32500000Y-65790000D02*
X28500000Y-65790000D01*
X32930000Y-66660000D02*
X32930000Y-68260000D01*
X32930000Y-68260000D02*
X33530000Y-68260000D01*
X32930000Y-69200000D02*
X32930000Y-70800000D01*
X32930000Y-70800000D02*
X33530000Y-70800000D01*
X33530000Y-66660000D02*
X32930000Y-66660000D01*
X33530000Y-69200000D02*
X32930000Y-69200000D01*
X33530000Y-66080000D02*
X27510000Y-66080000D01*
X27510000Y-71380000D01*
X33530000Y-71380000D01*
X33530000Y-66080000D01*
%TO.C,Q1*%
X51150000Y-70430000D02*
X51150000Y-74030000D01*
X51161522Y-70391522D02*
G75*
G02*
X55600001Y-72230000I1838478J-1838478D01*
G01*
X55600000Y-72230000D02*
G75*
G02*
X51161522Y-74068478I-2600000J0D01*
G01*
%TO.C,R3*%
X39460000Y-46500000D02*
X40230000Y-46500000D01*
X47540000Y-46500000D02*
X46770000Y-46500000D01*
X40230000Y-45130000D02*
X46770000Y-45130000D01*
X46770000Y-47870000D01*
X40230000Y-47870000D01*
X40230000Y-45130000D01*
%TO.C,D2*%
X66025000Y-57140000D02*
X66025000Y-53860000D01*
X60425000Y-55500000D02*
G75*
G02*
X66025000Y-53860488I3040000J0D01*
G01*
X66025000Y-57139512D02*
G75*
G02*
X60425000Y-55500000I-2560000J1639512D01*
G01*
X65965000Y-55500000D02*
G75*
G02*
X60965000Y-55500000I-2500000J0D01*
G01*
X60965000Y-55500000D02*
G75*
G02*
X65965000Y-55500000I2500000J0D01*
G01*
%TO.C,R1*%
X39850000Y-78950000D02*
X39850000Y-82000000D01*
X44150000Y-78950000D02*
X44150000Y-82000000D01*
X39850000Y-78950000D02*
G75*
G02*
X44165525Y-78971766I2150000J-1550000D01*
G01*
X44150000Y-82000000D02*
G75*
G02*
X39881751Y-82044513I-2150000J1500000D01*
G01*
%TO.C,R2*%
X39460000Y-57000000D02*
X40230000Y-57000000D01*
X47540000Y-57000000D02*
X46770000Y-57000000D01*
X40230000Y-55630000D02*
X46770000Y-55630000D01*
X46770000Y-58370000D01*
X40230000Y-58370000D01*
X40230000Y-55630000D01*
%TD*%
M02*
