%TF.GenerationSoftware,KiCad,Pcbnew,9.0.7*%
%TF.CreationDate,2026-03-18T14:58:16+05:30*%
%TF.ProjectId,LDR,4c44522e-6b69-4636-9164-5f7063625858,rev?*%
%TF.SameCoordinates,Original*%
%TF.FileFunction,Copper,L2,Bot*%
%TF.FilePolarity,Positive*%
%FSLAX46Y46*%
G04 Gerber Fmt 4.6, Leading zero omitted, Abs format (unit mm)*
G04 Created by KiCad (PCBNEW 9.0.7) date 2026-03-18 14:58:16*
%MOMM*%
%LPD*%
G01*
G04 APERTURE LIST*
G04 Aperture macros list*
%AMRoundRect*
0 Rectangle with rounded corners*
0 $1 Rounding radius*
0 $2 $3 $4 $5 $6 $7 $8 $9 X,Y pos of 4 corners*
0 Add a 4 corners polygon primitive as box body*
4,1,4,$2,$3,$4,$5,$6,$7,$8,$9,$2,$3,0*
0 Add four circle primitives for the rounded corners*
1,1,$1+$1,$2,$3*
1,1,$1+$1,$4,$5*
1,1,$1+$1,$6,$7*
1,1,$1+$1,$8,$9*
0 Add four rect primitives between the rounded corners*
20,1,$1+$1,$2,$3,$4,$5,0*
20,1,$1+$1,$4,$5,$6,$7,0*
20,1,$1+$1,$6,$7,$8,$9,0*
20,1,$1+$1,$8,$9,$2,$3,0*%
G04 Aperture macros list end*
%TA.AperFunction,ComponentPad*%
%ADD10C,3.000000*%
%TD*%
%TA.AperFunction,ComponentPad*%
%ADD11C,2.500000*%
%TD*%
%TA.AperFunction,ComponentPad*%
%ADD12C,2.000000*%
%TD*%
%TA.AperFunction,ComponentPad*%
%ADD13RoundRect,0.250001X-0.949999X-0.949999X0.949999X-0.949999X0.949999X0.949999X-0.949999X0.949999X0*%
%TD*%
%TA.AperFunction,ComponentPad*%
%ADD14C,2.400000*%
%TD*%
%TA.AperFunction,ComponentPad*%
%ADD15RoundRect,0.250000X0.845000X-0.620000X0.845000X0.620000X-0.845000X0.620000X-0.845000X-0.620000X0*%
%TD*%
%TA.AperFunction,ComponentPad*%
%ADD16O,2.190000X1.740000*%
%TD*%
%TA.AperFunction,ComponentPad*%
%ADD17RoundRect,0.250000X-0.845000X0.620000X-0.845000X-0.620000X0.845000X-0.620000X0.845000X0.620000X0*%
%TD*%
%TA.AperFunction,ComponentPad*%
%ADD18R,1.500000X1.050000*%
%TD*%
%TA.AperFunction,ComponentPad*%
%ADD19O,1.500000X1.050000*%
%TD*%
%TA.AperFunction,ComponentPad*%
%ADD20C,1.600000*%
%TD*%
%TA.AperFunction,ComponentPad*%
%ADD21R,1.800000X1.800000*%
%TD*%
%TA.AperFunction,ComponentPad*%
%ADD22C,1.800000*%
%TD*%
%TA.AperFunction,ComponentPad*%
%ADD23C,1.500000*%
%TD*%
%TA.AperFunction,Conductor*%
%ADD24C,1.000000*%
%TD*%
G04 APERTURE END LIST*
D10*
%TO.P,K1,1*%
%TO.N,Net-(J1-Pin_1)*%
X69050000Y-76450000D03*
D11*
%TO.P,K1,2*%
%TO.N,Net-(D1-K)*%
X71000000Y-82500000D03*
D10*
%TO.P,K1,3*%
%TO.N,Net-(J3-Pin_1)*%
X83200000Y-82500000D03*
%TO.P,K1,4*%
%TO.N,Net-(J3-Pin_2)*%
X83250000Y-70450000D03*
D11*
%TO.P,K1,5*%
%TO.N,Net-(D1-A)*%
X71000000Y-70500000D03*
%TD*%
D12*
%TO.P,J1,1,Pin_1*%
%TO.N,Net-(J1-Pin_1)*%
X77000000Y-62500000D03*
%TD*%
D13*
%TO.P,D1,1,K*%
%TO.N,Net-(D1-K)*%
X38920000Y-37500000D03*
D14*
%TO.P,D1,2,A*%
%TO.N,Net-(D1-A)*%
X49080000Y-37500000D03*
%TD*%
D15*
%TO.P,J3,1,Pin_1*%
%TO.N,Net-(J3-Pin_1)*%
X98000000Y-77540000D03*
D16*
%TO.P,J3,2,Pin_2*%
%TO.N,Net-(J3-Pin_2)*%
X98000000Y-75000000D03*
%TD*%
D17*
%TO.P,J2,1,Pin_1*%
%TO.N,Net-(D1-K)*%
X30500000Y-67460000D03*
D16*
%TO.P,J2,2,Pin_2*%
%TO.N,GND*%
X30500000Y-70000000D03*
%TD*%
D18*
%TO.P,Q1,1,C*%
%TO.N,Net-(D1-A)*%
X53000000Y-70960000D03*
D19*
%TO.P,Q1,2,B*%
%TO.N,Net-(Q1-B)*%
X53000000Y-72230000D03*
%TO.P,Q1,3,E*%
%TO.N,GND*%
X53000000Y-73500000D03*
%TD*%
D20*
%TO.P,R3,1*%
%TO.N,Net-(D2-A)*%
X38420000Y-46500000D03*
%TO.P,R3,2*%
%TO.N,Net-(D1-K)*%
X48580000Y-46500000D03*
%TD*%
D21*
%TO.P,D2,1,K*%
%TO.N,Net-(D1-A)*%
X64735000Y-55500000D03*
D22*
%TO.P,D2,2,A*%
%TO.N,Net-(D2-A)*%
X62195000Y-55500000D03*
%TD*%
D23*
%TO.P,R1,1*%
%TO.N,Net-(Q1-B)*%
X42000000Y-78800000D03*
%TO.P,R1,2*%
%TO.N,GND*%
X42000000Y-82200000D03*
%TD*%
D20*
%TO.P,R2,1*%
%TO.N,Net-(Q1-B)*%
X38420000Y-57000000D03*
%TO.P,R2,2*%
%TO.N,Net-(D1-K)*%
X48580000Y-57000000D03*
%TD*%
D24*
%TO.N,Net-(D1-K)*%
X46500000Y-59080000D02*
X48580000Y-57000000D01*
X28704000Y-77402470D02*
X28704000Y-69349270D01*
X30500000Y-64500000D02*
X33500000Y-61500000D01*
X35051529Y-83749999D02*
X28704000Y-77402470D01*
X48580000Y-57000000D02*
X48580000Y-47500000D01*
X45000000Y-61500000D02*
X46500000Y-60000000D01*
X69750001Y-83749999D02*
X35051529Y-83749999D01*
X48580000Y-47160000D02*
X38920000Y-37500000D01*
X33500000Y-61500000D02*
X45000000Y-61500000D01*
X30500000Y-67460000D02*
X30500000Y-64500000D01*
X46500000Y-60000000D02*
X46500000Y-59080000D01*
X48580000Y-47500000D02*
X48580000Y-47160000D01*
X38053270Y-60000000D02*
X46500000Y-60000000D01*
X48580000Y-47500000D02*
X48580000Y-46500000D01*
X71000000Y-82500000D02*
X69750001Y-83749999D01*
X28704000Y-69349270D02*
X38053270Y-60000000D01*
%TO.N,Net-(D1-A)*%
X71000000Y-70500000D02*
X71000000Y-61765000D01*
X69540000Y-70960000D02*
X53000000Y-70960000D01*
X49080000Y-37500000D02*
X49080000Y-39845000D01*
X49080000Y-39845000D02*
X64735000Y-55500000D01*
X71000000Y-70500000D02*
X70000000Y-70500000D01*
X71000000Y-61765000D02*
X64735000Y-55500000D01*
X70000000Y-70500000D02*
X69540000Y-70960000D01*
%TO.N,Net-(D2-A)*%
X33257945Y-33500000D02*
X31501000Y-35256945D01*
X34500000Y-34000000D02*
X34000000Y-33500000D01*
X31501000Y-35999000D02*
X38420000Y-42918000D01*
X38420000Y-42918000D02*
X38420000Y-46500000D01*
X62195000Y-55500000D02*
X40695000Y-34000000D01*
X31501000Y-35256945D02*
X31501000Y-35999000D01*
X34000000Y-33500000D02*
X33257945Y-33500000D01*
X40695000Y-34000000D02*
X34500000Y-34000000D01*
%TO.N,Net-(J1-Pin_1)*%
X77000000Y-68500000D02*
X77000000Y-62500000D01*
X69050000Y-76450000D02*
X77000000Y-68500000D01*
%TO.N,GND*%
X53000000Y-73500000D02*
X53000000Y-81000000D01*
X30500000Y-77500000D02*
X35200000Y-82200000D01*
X51800000Y-82200000D02*
X42000000Y-82200000D01*
X30500000Y-70000000D02*
X30500000Y-77500000D01*
X53000000Y-81000000D02*
X51800000Y-82200000D01*
X35200000Y-82200000D02*
X42000000Y-82200000D01*
%TO.N,Net-(J3-Pin_1)*%
X96500000Y-82500000D02*
X83200000Y-82500000D01*
X98000000Y-81000000D02*
X96500000Y-82500000D01*
X98000000Y-77540000D02*
X98000000Y-81000000D01*
%TO.N,Net-(J3-Pin_2)*%
X95950000Y-70450000D02*
X83250000Y-70450000D01*
X98000000Y-72500000D02*
X95950000Y-70450000D01*
X98000000Y-75000000D02*
X98000000Y-72500000D01*
%TO.N,Net-(Q1-B)*%
X42000000Y-73500000D02*
X42000000Y-78800000D01*
X43270000Y-72230000D02*
X42000000Y-73500000D01*
X39921000Y-42720530D02*
X34002530Y-36802060D01*
X38420000Y-57000000D02*
X39921000Y-55499000D01*
X50081000Y-45084470D02*
X50081000Y-65419000D01*
X53000000Y-72230000D02*
X43270000Y-72230000D01*
X34002530Y-35201000D02*
X40197530Y-35201000D01*
X50081000Y-65419000D02*
X43270000Y-72230000D01*
X39921000Y-55499000D02*
X39921000Y-42720530D01*
X34002530Y-36802060D02*
X34002530Y-35201000D01*
X40197530Y-35201000D02*
X50081000Y-45084470D01*
%TD*%
M02*
